<?xml version="1.0" encoding="utf-8"?>
<!-- Generator: Adobe Illustrator 18.0.0, SVG Export Plug-In . SVG Version: 6.00 Build 0)  -->
<!DOCTYPE svg PUBLIC "-//W3C//DTD SVG 1.1//EN" "http://www.w3.org/Graphics/SVG/1.1/DTD/svg11.dtd">
<svg version="1.1" id="Layer_1" xmlns="http://www.w3.org/2000/svg" xmlns:xlink="http://www.w3.org/1999/xlink" x="0px" y="0px"
	 viewBox="0 0 2272 1872" enable-background="new 0 0 2272 1872" xml:space="preserve">
<g>
	<circle fill="#C9EAF5" cx="1699.1" cy="870.7" r="259.3"/>
	<circle fill="#A6DEF2" cx="1771.2" cy="1190.2" r="326"/>
	<circle fill="#C9EAF5" cx="541.7" cy="877.7" r="259.3"/>
	<circle fill="#A6DEF2" cx="499.8" cy="1190.2" r="326"/>
	<path fill="none" stroke="#59C3E8" stroke-miterlimit="10" d="M1136.7,221"/>
	<path fill="#A2C43A" d="M2038.8,1492.9H233.2c-54.8,0-99.2-44.4-99.2-99.2v0c0-54.8,44.4-99.2,99.2-99.2h1805.6
		c54.8,0,99.2,44.4,99.2,99.2v0C2138,1448.5,2093.6,1492.9,2038.8,1492.9z"/>
	<g>
		<g>
			<g>
				<g>
					<g>
						<path fill="#97B53F" d="M1940.2,1153.6c0,0-54.2-14.6-77.1-90.6c-22.9-76-26.5-265.9,0-341.9c26.5-76,87.7-134.3,124.4-82.5
							c36.6,51.8,58.8,290.2,33.6,392.1C1995.8,1132.6,1959.2,1148.8,1940.2,1153.6z"/>
					</g>
					<path fill="#86A33D" d="M1921,632.4c44.7,4.7,67.6,107.6,77.1,182c9.5,74.4,17,238.3-45.1,257.7
						c-61.5,19.2-92.7-21.3-93.3-22.1c1.1,4.6,2.3,9,3.5,13.1c22.9,76,77.1,90.6,77.1,90.6c19-4.8,55.6-21,80.9-122.9
						c25.3-101.9,3.1-340.3-33.6-392.1C1969.1,612.6,1944.4,614.4,1921,632.4z"/>
				</g>
				<g>
					<path fill="#6A5121" d="M1915.9,1379.2c0,0,6.9-277.3,4.9-286.6c-2-9.3-26.7-51.9-26.7-51.9s31.6,38.6,34.6,22.6
						c3-16,8.9-137.1,8.9-137.1s2,122.5,9.9,121.1c7.9-1.3,40.5-49.3,40.5-49.3s-37.5,63.9-37.5,87.9c0,24,3,293.3,3,293.3H1915.9z"
						/>
				</g>
			</g>
		</g>
		<g>
			<g>
				<path fill="#528E40" d="M1735.4,1380.2c0,0-33.6-33.6-16.2-74.7c17.5-41.1,69.9-34.5,69.9-34.5s-15.3-46.4,42.8-65.4
					c58.1-19,89.6,42.2,89.6,42.2s3.1-30.6,29.7-28.4c26.7,2.2,16.6,39.3,5.7,47.2c0,0,30.1-28,48.9-3.9
					c18.8,24-28.4,28.4-28.4,28.4s41.9-6.7,55.5,18.3c13.5,25-9.6,37.2-9.6,37.2s31-12.2,39.3,3.9c8.3,16.2-42.4,27.5-42.4,27.5
					L1735.4,1380.2z"/>
				<path fill="#63A544" d="M1739.8,1318.3c15.8-23.3,73.2-27.2,73.2-27.2s-15.3-29.3,5.4-49c20.6-19.7,75.3-9,91,18.8
					c0,0,18.3-10.8,31.4-9c13,1.8,12.1,31.4,12.1,31.4s4-14.3,20.9-9c16.8,5.4-1.6,24-1.6,24s27.4-0.7,40,16.4s-7.2,42.1-7.2,42.1
					s37.3-14,42.4,12.3l0,0c10.5-4.8,19.1-11.2,15.3-18.6c-8.3-16.2-39.3-3.9-39.3-3.9s23.2-12.2,9.6-37.2
					c-11.5-21.1-43.3-19.6-52.8-18.6c9.7-1.4,41.7-7.6,25.7-28.1c-16.3-20.8-41-2.6-47.4,2.6c10.3-10,18.2-43.8-7.2-45.9
					c-26.7-2.2-29.7,28.4-29.7,28.4s-31.5-61.2-89.6-42.2c-58.1,19-42.8,65.4-42.8,65.4s-52.4-6.5-69.9,34.5
					c-17.5,41.1,16.2,74.7,16.2,74.7S1724,1341.6,1739.8,1318.3z"/>
			</g>
		</g>
		<g>
			<g>
				<g>
					<g>
						<path fill="#97B53F" d="M316,1154.3c0,0,54.3-14.6,77.2-90.6c23-76,26.6-265.8,0-341.8c-26.6-76-87.9-134.2-124.7-82.5
							c-36.7,51.8-59,290.1-33.6,392C260.2,1133.2,297,1149.4,316,1154.3z"/>
					</g>
					<path fill="#86A33D" d="M335.2,633.2c-44.8,4.7-67.8,107.6-77.3,181.9c-9.5,74.3-17,238.2,45.2,257.6
						c61.6,19.2,92.9-21.3,93.5-22.1c-1.1,4.6-2.3,9-3.5,13.1c-23,76-77.2,90.6-77.2,90.6c-19-4.8-55.7-21-81-122.9
						c-25.3-101.9-3.1-340.2,33.6-392C287.1,613.3,311.8,615.2,335.2,633.2z"/>
				</g>
				<g>
					<path fill="#6A5121" d="M340.3,1379.8c0,0-6.9-277.2-4.9-286.6c2-9.3,26.7-51.9,26.7-51.9s-31.7,38.6-34.7,22.6
						c-3-16-8.9-137.1-8.9-137.1s-2,122.4-9.9,121.1c-7.9-1.3-40.6-49.2-40.6-49.2s37.6,63.9,37.6,87.8c0,24-3,293.2-3,293.2H340.3z
						"/>
				</g>
			</g>
		</g>
		<g>
			<g>
				<path fill="#528E40" d="M521,1380.8c0,0,33.6-33.6,16.2-74.7c-17.5-41.1-69.9-34.5-69.9-34.5s15.3-46.4-42.8-65.4
					c-58.1-19-89.6,42.2-89.6,42.2s-3.1-30.6-29.7-28.4c-26.7,2.2-16.6,39.3-5.7,47.2c0,0-30.1-28-48.9-3.9
					c-18.8,24,28.4,28.4,28.4,28.4s-41.9-6.7-55.5,18.3c-13.5,25,9.6,37.2,9.6,37.2s-31-12.2-39.3,3.9
					c-8.3,16.2,42.4,27.5,42.4,27.5L521,1380.8z"/>
				<path fill="#63A544" d="M516.6,1318.9c-15.8-23.3-73.2-27.2-73.2-27.2s15.3-29.3-5.4-49c-20.6-19.7-75.3-9-91,18.8
					c0,0-18.3-10.8-31.4-9c-13,1.8-12.1,31.4-12.1,31.4s-4-14.3-20.9-9c-16.8,5.4,1.6,24,1.6,24s-27.4-0.7-40,16.4
					s7.2,42.1,7.2,42.1s-37.3-14-42.4,12.3l0,0c-10.5-4.8-19.1-11.2-15.3-18.6c8.3-16.2,39.3-3.9,39.3-3.9s-23.2-12.2-9.6-37.2
					c11.5-21.1,43.3-19.6,52.8-18.6c-9.7-1.4-41.7-7.6-25.7-28.1c16.3-20.8,41-2.6,47.4,2.6c-10.3-10-18.2-43.8,7.2-45.9
					c26.7-2.2,29.7,28.4,29.7,28.4s31.5-61.2,89.6-42.2c58.1,19,42.8,65.4,42.8,65.4s52.4-6.5,69.9,34.5
					c17.5,41.1-16.2,74.7-16.2,74.7S532.4,1342.2,516.6,1318.9z"/>
			</g>
		</g>
		<g>
			<g>
				<polygon fill="#AA5C61" points="631.7,582.1 631.7,408.9 552.8,408.9 552,582.1 				"/>
				<path fill="#8C4546" d="M615.3,582.1l-1.1-111.7c0-12.1-9.9-21.9-21.9-21.9c-12.1,0-21.9,9.9-21.9,21.9v111.7H615.3z"/>
				<rect x="547.3" y="396.4" fill="#FEF6DF" width="91" height="13.2"/>
				<rect x="542.5" y="385.4" fill="#D7D1BE" width="102.1" height="11.4"/>
				<rect x="582.9" y="365.3" fill="#BDB4A1" width="23.7" height="20.4"/>
			</g>
			<g>
				<polygon fill="#AA5C61" points="1680.5,582.1 1680.5,408.9 1601.6,408.9 1600.8,582.1 				"/>
				<path fill="#8C4546" d="M1664.1,582.1l-1.1-111.7c0-12.1-9.9-21.9-21.9-21.9c-12.1,0-21.9,9.9-21.9,21.9v111.7H1664.1z"/>
				<rect x="1596.1" y="396.4" fill="#FEF6DF" width="91" height="13.2"/>
				<rect x="1591.3" y="385.4" fill="#D7D1BE" width="102.1" height="11.4"/>
				<rect x="1631.7" y="365.3" fill="#BDB4A1" width="23.7" height="20.4"/>
			</g>
			<polygon fill="#414A6B" points="1479.3,375.8 754.6,375.8 442.4,694.6 1803.8,694.6 			"/>
			<rect x="462" y="731.1" fill="#AA5C61" width="1319.5" height="653.5"/>
			<rect x="418.1" y="694.5" fill="#28324F" width="1410.1" height="16.9"/>
			<rect x="462" y="1294.3" fill="#9F515A" width="1319.5" height="90.2"/>
			<rect x="872.3" y="731.1" fill="#8C4546" width="501.1" height="653.5"/>
			<polygon fill="#AEAAA6" points="1781.5,744.2 462,744.2 418.1,712 1828.2,712 			"/>
			<polygon fill="#FEF6DF" points="1796.8,733.7 1828.2,712 418.1,712 447.7,733.7 			"/>
			<rect x="462" y="744.2" fill="#8C4546" width="1319.5" height="15.9"/>
			<rect x="462" y="1290.7" fill="#FEF6DF" width="1319.5" height="3.7"/>
			<rect x="462" y="1076.7" fill="#FEF6DF" width="1319.5" height="3.7"/>
			<g>
				<polygon fill="#BD6F6F" points="1348,1382.9 897.9,1382.7 897.9,639.6 1119.5,453.7 1344.9,632.7 				"/>
				<path fill="none" stroke="#59C3E8" stroke-miterlimit="10" d="M1119.9,637.7"/>
				<polygon fill="#FEF6DF" points="897.8,641.7 1116.6,459.8 1346.1,641.7 1387,641.7 1114.9,429.5 1114.7,429.3 858.9,641.7 				
					"/>
				<g>
					<g>
						<polygon fill="#8C4546" points="1345.2,664.3 1344.9,632.7 1119.5,453.7 897.9,639.6 897.9,731.1 1158.5,516 						"/>
					</g>
				</g>
			</g>
			<polygon fill="#4D5D8A" points="1087.8,842.7 1087.8,822.5 1158.1,779.6 1158.1,799.7 			"/>
			<polygon fill="#4D5D8A" points="1087.8,864.1 1087.8,854.1 1158.1,811.1 1158.1,821.2 			"/>
			<polygon fill="#AF6166" points="897.9,1293.4 897.9,1382.7 1348,1382.9 1347.6,1293.4 			"/>
			<polygon fill="#4D5D8A" points="1087.8,813.9 1087.8,808.8 1158.1,765.9 1158.1,770.9 			"/>
			<g>
				<polygon fill="#8E5257" points="1260.7,1377.4 1220.8,1341.5 1021.6,1341.5 981,1379.1 981,1143.4 1260.7,1143.4 				"/>
				<polygon fill="#8C4546" points="1120.9,978.9 1120.7,978.8 955.4,1096 964.3,1110.3 964.3,1110.5 964.3,1147 1287.6,1147 
					1287.6,1110.9 1287.8,1111 1295.1,1094.9 				"/>
				<g>
					<g>
						<rect x="975.4" y="1158.3" fill="#8C4546" width="20" height="205.7"/>
						<rect x="971.8" y="1141.8" fill="#8C4546" width="27.8" height="17"/>
						<rect x="975.2" y="1158.8" fill="#8C4546" width="20.2" height="6.3"/>
						<rect x="975.2" y="1359.6" fill="#8C4546" width="20.2" height="6.3"/>
						<rect x="971.8" y="1365.8" fill="#8C4546" width="27.8" height="17"/>
						<line fill="#8C4546" x1="975.9" y1="1359.6" x2="996.1" y2="1359.6"/>
					</g>
					<g>
						<rect x="1029.5" y="1158.3" fill="#8C4546" width="20" height="164.2"/>
						<rect x="1025.8" y="1141.8" fill="#8C4546" width="27.8" height="17"/>
						<rect x="1029.3" y="1158.8" fill="#8C4546" width="20.2" height="6.3"/>
						<rect x="1029.3" y="1318" fill="#8C4546" width="20.2" height="6.3"/>
						<rect x="1025.8" y="1324.3" fill="#8C4546" width="27.8" height="17"/>
						<line fill="#8C4546" x1="1029.9" y1="1318" x2="1050.1" y2="1318"/>
					</g>
					<g>
						<rect x="1255.5" y="1158.3" fill="#8C4546" width="20" height="205.7"/>
						<rect x="1251.4" y="1141.8" fill="#8C4546" width="27.8" height="17"/>
						<rect x="1255.5" y="1158.8" fill="#8C4546" width="20.2" height="6.3"/>
						<rect x="1255.5" y="1359.6" fill="#8C4546" width="20.2" height="6.3"/>
						<rect x="1251.4" y="1365.8" fill="#8C4546" width="27.8" height="17"/>
						<line fill="#8C4546" x1="1275" y1="1359.6" x2="1254.8" y2="1359.6"/>
					</g>
					<g>
						<rect x="1201.4" y="1158.3" fill="#8C4546" width="20" height="164.2"/>
						<rect x="1197.3" y="1141.8" fill="#8C4546" width="27.8" height="17"/>
						<rect x="1201.4" y="1158.8" fill="#8C4546" width="20.2" height="6.3"/>
						<rect x="1201.4" y="1318" fill="#8C4546" width="20.2" height="6.3"/>
						<rect x="1197.3" y="1324.3" fill="#8C4546" width="27.8" height="17"/>
						<line fill="#8C4546" x1="1221" y1="1318" x2="1200.8" y2="1318"/>
					</g>
				</g>
				<g>
					<g>
						<rect x="971.1" y="1158.3" fill="#FEF6DF" width="20" height="205.7"/>
						<rect x="967.5" y="1141.8" fill="#FEF6DF" width="27.8" height="17"/>
						<rect x="970.9" y="1158.8" fill="#D6CEBD" width="20.2" height="6.3"/>
						<rect x="970.9" y="1359.6" fill="#D6CEBD" width="20.2" height="6.3"/>
						<rect x="967.5" y="1365.8" fill="#FEF6DF" width="27.8" height="17"/>
						<line fill="#D6CEBD" x1="971.6" y1="1359.6" x2="991.8" y2="1359.6"/>
					</g>
					<g>
						<rect x="1025.2" y="1158.3" fill="#FEF6DF" width="20" height="164.2"/>
						<rect x="1021.6" y="1141.8" fill="#FEF6DF" width="27.8" height="17"/>
						<rect x="1025" y="1158.8" fill="#D6CEBD" width="20.2" height="6.3"/>
						<rect x="1025" y="1318" fill="#D6CEBD" width="20.2" height="6.3"/>
						<rect x="1021.6" y="1324.3" fill="#FEF6DF" width="27.8" height="17"/>
						<line fill="#D6CEBD" x1="1025.7" y1="1318" x2="1045.9" y2="1318"/>
					</g>
					<g>
						<rect x="1251.2" y="1158.3" fill="#FEF6DF" width="20" height="205.7"/>
						<rect x="1247.1" y="1141.8" fill="#FEF6DF" width="27.8" height="17"/>
						<rect x="1251.2" y="1158.8" fill="#D6CEBD" width="20.2" height="6.3"/>
						<rect x="1251.2" y="1359.6" fill="#D6CEBD" width="20.2" height="6.3"/>
						<rect x="1247.1" y="1365.8" fill="#FEF6DF" width="27.8" height="17"/>
						<line fill="#D6CEBD" x1="1270.8" y1="1359.6" x2="1250.6" y2="1359.6"/>
					</g>
					<g>
						<rect x="1197.2" y="1158.3" fill="#FEF6DF" width="20" height="164.2"/>
						<rect x="1193.1" y="1141.8" fill="#FEF6DF" width="27.8" height="17"/>
						<rect x="1197.2" y="1158.8" fill="#D6CEBD" width="20.2" height="6.3"/>
						<rect x="1197.2" y="1318" fill="#D6CEBD" width="20.2" height="6.3"/>
						<rect x="1193.1" y="1324.3" fill="#FEF6DF" width="27.8" height="17"/>
						<line fill="#D6CEBD" x1="1216.7" y1="1318" x2="1196.5" y2="1318"/>
					</g>
				</g>
				<g>
					<polygon fill="#E8E0CF" points="1283,1143.4 959.6,1143.4 959.6,1106.9 1115.9,990.5 1283,1106.9 					"/>
					<rect x="959.6" y="1099.6" fill="#CEC9C1" width="323.4" height="7.3"/>
					<g>
						<polygon fill="#C4C0BB" points="996.6,1106.4 1127.3,1009.1 1266.9,1106.4 1282.3,1106.4 1115.9,990.5 960.3,1106.4 						"/>
					</g>
					<rect x="959.6" y="1106.9" fill="#FEF6DF" width="323.4" height="36.5"/>
					<polygon fill="#FEF6DF" points="960.1,1107.4 1116.4,994.6 1283.2,1107.4 1290.5,1091.3 1116.3,975.3 1116.1,975.2 
						950.7,1092.4 					"/>
				</g>
				<g>
					<rect x="1067.6" y="1143.4" fill="#663137" width="106.9" height="198.1"/>
					<rect x="1064.5" y="1143.4" fill="#FEF6DF" width="10.1" height="198.1"/>
					<rect x="1166.9" y="1143.4" fill="#FEF6DF" width="10.1" height="198.1"/>
					<g>
						<path fill="#FEF6DF" d="M1082.5,1243.7v-74.4c0-8.6,7-15.5,15.5-15.5c8.6,0,15.5,7,15.5,15.5v74.4H1082.5z"/>
						<path fill="#414A6B" d="M1111,1241.1h-25.9v-73.9c0-6,4.9-10.9,10.9-10.9h4.1c6,0,10.9,4.9,10.9,10.9V1241.1z"/>
						<polygon fill="#4D5D8A" points="1085.1,1199.2 1085.1,1191.7 1111,1175.9 1111,1183.3 						"/>
						<polygon fill="#4D5D8A" points="1085.1,1241.1 1085.1,1233.7 1111,1217.8 1111,1225.3 						"/>
						<polygon fill="#4D5D8A" points="1085.1,1224.2 1085.1,1220.5 1111,1204.6 1111,1208.3 						"/>
						<polygon fill="#4D5D8A" points="1111,1241.1 1111,1229.5 1092,1241.1 						"/>
						<polygon fill="#4D5D8A" points="1085.1,1207.1 1085.1,1203.4 1111,1187.5 1111,1191.3 						"/>
						<polygon fill="#4D5D8A" points="1085.1,1188.6 1085.1,1186.7 1111,1170.9 1111,1172.7 						"/>
						<rect x="1097" y="1156" fill="#FEF6DF" width="1.6" height="86.4"/>
						<rect x="1083.7" y="1178.8" fill="#FEF6DF" width="28.7" height="1.6"/>
						<rect x="1083.7" y="1199.7" fill="#FEF6DF" width="28.7" height="1.6"/>
						<rect x="1083.7" y="1220.6" fill="#FEF6DF" width="28.7" height="1.6"/>
					</g>
					<g>
						<path fill="#FEF6DF" d="M1129.1,1243.7v-74.4c0-8.6,7-15.5,15.5-15.5c8.6,0,15.5,7,15.5,15.5v74.4H1129.1z"/>
						<path fill="#414A6B" d="M1157.6,1241.1h-25.9v-73.9c0-6,4.9-10.9,10.9-10.9h4.1c6,0,10.9,4.9,10.9,10.9V1241.1z"/>
						<polygon fill="#4D5D8A" points="1131.7,1199.2 1131.7,1191.7 1157.6,1175.9 1157.6,1183.3 						"/>
						<polygon fill="#4D5D8A" points="1131.7,1241.1 1131.7,1233.7 1157.6,1217.8 1157.6,1225.3 						"/>
						<polygon fill="#4D5D8A" points="1131.7,1224.2 1131.7,1220.5 1157.6,1204.6 1157.6,1208.3 						"/>
						<polygon fill="#4D5D8A" points="1157.6,1241.1 1157.6,1229.5 1138.6,1241.1 						"/>
						<polygon fill="#4D5D8A" points="1131.7,1207.1 1131.7,1203.4 1157.6,1187.5 1157.6,1191.3 						"/>
						<polygon fill="#4D5D8A" points="1131.7,1188.6 1131.7,1186.7 1157.6,1170.9 1157.6,1172.7 						"/>
						<rect x="1143.6" y="1156" fill="#FEF6DF" width="1.6" height="86.4"/>
						<rect x="1130.3" y="1178.8" fill="#FEF6DF" width="28.7" height="1.6"/>
						<rect x="1130.3" y="1199.7" fill="#FEF6DF" width="28.7" height="1.6"/>
						<rect x="1130.3" y="1220.6" fill="#FEF6DF" width="28.7" height="1.6"/>
					</g>
					<rect x="1119.5" y="1143.4" fill="#51232A" width="3.3" height="198.1"/>
					<g>
						<path fill="#51232A" d="M1082.5,1255.2v21.1h31.1v-21.1H1082.5z M1106.4,1269.6h-21.5V1258h21.5V1269.6z"/>
					</g>
					<g>
						<path fill="#51232A" d="M1082.5,1282.2v21.1h31.1v-21.1H1082.5z M1106.4,1296.6h-21.5V1285h21.5V1296.6z"/>
					</g>
					<g>
						<path fill="#51232A" d="M1082.5,1309.2v21.1h31.1v-21.1H1082.5z M1106.4,1323.6h-21.5v-11.6h21.5V1323.6z"/>
					</g>
					<g>
						<path fill="#51232A" d="M1129.7,1255.2v21.1h31.1v-21.1H1129.7z M1153.6,1269.6H1132V1258h21.5V1269.6z"/>
					</g>
					<g>
						<path fill="#51232A" d="M1129.7,1282.2v21.1h31.1v-21.1H1129.7z M1153.6,1296.6H1132V1285h21.5V1296.6z"/>
					</g>
					<g>
						<path fill="#51232A" d="M1129.7,1309.2v21.1h31.1v-21.1H1129.7z M1153.6,1323.6H1132v-11.6h21.5V1323.6z"/>
					</g>
					<g>
						<circle fill="#FDB515" cx="1113.4" cy="1249.6" r="3.1"/>
						<circle fill="#F9DA57" cx="1112.7" cy="1249" r="1.5"/>
					</g>
					<g>
						<circle fill="#FDB515" cx="1128.6" cy="1249.6" r="3.1"/>
						<circle fill="#F9DA57" cx="1127.9" cy="1249" r="1.5"/>
					</g>
				</g>
			</g>
			<g>
				<rect x="985" y="693.5" fill="#414A6B" width="272.3" height="175.9"/>
				<polygon fill="#4D5D8A" points="1083.4,836.7 1083.4,815.1 1158.6,769.1 1158.6,790.7 				"/>
				<polygon fill="#4D5D8A" points="1083.4,771.7 1083.4,760.9 1158.6,715 1158.6,725.7 				"/>
				<polygon fill="#4D5D8A" points="1173.1,806.5 1173.1,797 1248.3,751.1 1248.3,760.6 				"/>
				<polygon fill="#4D5D8A" points="1173.1,860.1 1173.1,850.6 1248.3,804.6 1248.3,814.1 				"/>
				<polygon fill="#4D5D8A" points="1173.1,787.8 1173.1,744.8 1248.3,698.9 1248.3,741.8 				"/>
				<g>
					<polygon fill="#D6CEBD" points="1265.2,690.1 976.8,690.1 980.3,679.6 1261.7,679.6 					"/>
					<g>
						<g>
							<rect x="976.7" y="712.6" fill="#FEF6DF" width="16.8" height="138"/>
							<rect x="973.6" y="698.7" fill="#FEF6DF" width="23.3" height="14.3"/>
							<rect x="976.5" y="713" fill="#D6CEBD" width="17" height="5.3"/>
							<rect x="976.5" y="846.9" fill="#D6CEBD" width="17" height="5.3"/>
							<rect x="973.6" y="852.1" fill="#FEF6DF" width="23.3" height="14.3"/>
							<line fill="#D6CEBD" x1="977.1" y1="846.9" x2="994" y2="846.9"/>
						</g>
					</g>
					<g>
						<g>
							<rect x="1067.2" y="712.6" fill="#FEF6DF" width="16.8" height="138"/>
							<rect x="1064.2" y="698.7" fill="#FEF6DF" width="23.3" height="14.3"/>
							<rect x="1067.1" y="713" fill="#D6CEBD" width="17" height="5.3"/>
							<rect x="1067.1" y="846.9" fill="#D6CEBD" width="17" height="5.3"/>
							<rect x="1064.2" y="852.1" fill="#FEF6DF" width="23.3" height="14.3"/>
							<line fill="#D6CEBD" x1="1067.6" y1="846.9" x2="1084.6" y2="846.9"/>
						</g>
					</g>
					<g>
						<g>
							<rect x="1157.8" y="712.6" fill="#FEF6DF" width="16.8" height="138"/>
							<rect x="1154.8" y="698.7" fill="#FEF6DF" width="23.3" height="14.3"/>
							<rect x="1157.6" y="713" fill="#D6CEBD" width="17" height="5.3"/>
							<rect x="1157.6" y="846.9" fill="#D6CEBD" width="17" height="5.3"/>
							<rect x="1154.8" y="852.1" fill="#FEF6DF" width="23.3" height="14.3"/>
							<line fill="#D6CEBD" x1="1158.2" y1="846.9" x2="1175.2" y2="846.9"/>
						</g>
					</g>
					<g>
						<g>
							<rect x="1248.4" y="712.6" fill="#FEF6DF" width="16.8" height="138"/>
							<rect x="1245.3" y="698.7" fill="#FEF6DF" width="23.3" height="14.3"/>
							<rect x="1248.2" y="713" fill="#D6CEBD" width="17" height="5.3"/>
							<rect x="1248.2" y="846.9" fill="#D6CEBD" width="17" height="5.3"/>
							<rect x="1245.3" y="852.1" fill="#FEF6DF" width="23.3" height="14.3"/>
							<line fill="#D6CEBD" x1="1248.8" y1="846.9" x2="1265.8" y2="846.9"/>
						</g>
					</g>
					<rect x="968.3" y="688.2" fill="#FEF6DF" width="305.4" height="10.5"/>
					<rect x="968.3" y="866.4" fill="#FEF6DF" width="305.4" height="5.8"/>
				</g>
				<g>
					<polygon fill="none" points="1245.3,852.1 1248.2,852.1 1248.2,846.9 1248.4,846.9 1248.4,718.3 1248.2,718.3 1248.2,713.1 
						1245.3,713.1 1245.3,704.1 1181.9,704.1 1181.9,718.4 1178.5,718.4 1178.5,723.7 1178.5,852.3 1178.5,856 1178.5,857.5 
						1181.9,857.5 1181.9,866.4 1245.3,866.4 					"/>
					<polygon fill="none" points="1154.8,852.1 1157.6,852.1 1157.6,846.9 1157.8,846.9 1157.8,718.3 1157.6,718.3 1157.6,713.1 
						1154.8,713.1 1154.8,704.1 1091.4,704.1 1091.4,718.4 1087.9,718.4 1087.9,723.7 1087.9,852.3 1087.9,856 1087.9,857.5 
						1091.4,857.5 1091.4,866.4 1154.8,866.4 					"/>
					<polygon fill="none" points="1064.2,852.1 1067.1,852.1 1067.1,846.9 1067.2,846.9 1067.2,718.3 1067.1,718.3 1067.1,713.1 
						1064.2,713.1 1064.2,704.1 1000.8,704.1 1000.8,718.4 997.3,718.4 997.3,723.7 997.3,852.3 997.3,856 997.3,857.5 
						1000.8,857.5 1000.8,866.4 1064.2,866.4 					"/>
					<polygon fill="#2C385B" points="997.3,857.5 997.3,856 997.3,852.3 997.3,723.7 997.3,718.4 1000.8,718.4 1000.8,704.1 
						1064.2,704.1 1064.2,698.7 996.9,698.7 996.9,713.1 993.5,713.1 993.5,718.3 993.5,846.9 993.5,850.6 993.5,852.1 996.9,852.1 
						996.9,866.4 1000.8,866.4 1000.8,857.5 					"/>
					<polygon fill="#8C4546" points="972.1,872.3 972.1,877.6 1277.6,877.6 1277.6,871.8 1273.7,871.8 1273.7,872.3 					"/>
					<polygon fill="#8C4546" points="1269.1,852.3 1269.1,723.7 1269.1,718.4 1272.5,718.4 1272.5,704.1 1277.6,704.1 1277.6,693.6 
						1273.7,693.6 1273.7,698.7 1268.7,698.7 1268.7,713.1 1265.2,713.1 1265.2,718.3 1265.2,846.9 1265.2,850.6 1265.2,852.1 
						1268.7,852.1 1268.7,866.4 1272.5,866.4 1272.5,857.5 1269.1,857.5 1269.1,856 					"/>
					<rect x="972.1" y="698.7" fill="#2C385B" width="1.5" height="5.4"/>
					<polygon fill="#2C385B" points="1266.6,688.2 1265.6,685 1263.5,685 1264.6,688.2 					"/>
					<polygon fill="#2C385B" points="1087.9,857.5 1087.9,856 1087.9,852.3 1087.9,723.7 1087.9,718.4 1091.4,718.4 1091.4,704.1 
						1154.8,704.1 1154.8,698.7 1087.5,698.7 1087.5,713.1 1084.1,713.1 1084.1,718.3 1084.1,846.9 1084.1,850.6 1084.1,852.1 
						1087.5,852.1 1087.5,866.4 1091.4,866.4 1091.4,857.5 					"/>
					<polygon fill="#2C385B" points="1178.5,857.5 1178.5,856 1178.5,852.3 1178.5,723.7 1178.5,718.4 1181.9,718.4 1181.9,704.1 
						1245.3,704.1 1245.3,698.7 1178.1,698.7 1178.1,713.1 1174.6,713.1 1174.6,718.3 1174.6,846.9 1174.6,850.6 1174.6,852.1 
						1178.1,852.1 1178.1,866.4 1181.9,866.4 1181.9,857.5 					"/>
					<polygon fill="#FEF6DF" points="1252.1,718.4 1249.2,718.4 1249.2,704.1 1245.3,704.1 1245.3,713.1 1248.2,713.1 1248.2,718.3 
						1248.4,718.3 1248.4,846.9 1248.2,846.9 1248.2,852.1 1245.3,852.1 1245.3,866.4 1181.9,866.4 1181.9,871.8 1249.2,871.8 
						1249.2,857.5 1252.1,857.5 1252.1,852.3 1252.2,852.3 1252.2,723.7 1252.1,723.7 					"/>
					<polygon fill="#FEF6DF" points="1161.5,718.4 1158.6,718.4 1158.6,704.1 1154.8,704.1 1154.8,713.1 1157.6,713.1 1157.6,718.3 
						1157.8,718.3 1157.8,846.9 1157.6,846.9 1157.6,852.1 1154.8,852.1 1154.8,866.4 1091.4,866.4 1091.4,871.8 1158.6,871.8 
						1158.6,857.5 1161.5,857.5 1161.5,852.3 1161.7,852.3 1161.7,723.7 1161.5,723.7 					"/>
					<polygon fill="#FEF6DF" points="981.3,693.6 984.1,685 1263.5,685 1261.7,679.6 980.3,679.6 977.4,688.2 968.3,688.2 
						968.3,698.7 972.1,698.7 972.1,693.6 					"/>
					<polygon fill="#FEF6DF" points="1273.7,693.6 1273.7,688.2 1266.6,688.2 1268.4,693.6 					"/>
					<polygon fill="#FEF6DF" points="1070.9,718.4 1068,718.4 1068,704.1 1064.2,704.1 1064.2,713.1 1067.1,713.1 1067.1,718.3 
						1067.2,718.3 1067.2,846.9 1067.1,846.9 1067.1,852.1 1064.2,852.1 1064.2,866.4 1000.8,866.4 1000.8,871.8 1068,871.8 
						1068,857.5 1070.9,857.5 1070.9,852.3 1071.1,852.3 1071.1,723.7 1070.9,723.7 					"/>
					<polygon fill="#FEF6DF" points="977.5,871.8 977.5,857.5 980.3,857.5 980.3,852.3 980.5,852.3 980.5,723.7 980.3,723.7 
						980.3,718.4 977.5,718.4 977.5,704.1 973.6,704.1 973.6,713.1 976.5,713.1 976.5,718.3 976.7,718.3 976.7,846.9 976.5,846.9 
						976.5,852.1 973.6,852.1 973.6,866.4 968.3,866.4 968.3,872.3 972.1,872.3 972.1,871.8 					"/>
					<rect x="1272.5" y="866.4" fill="#FEF6DF" width="1.2" height="5.4"/>
					<path fill="#FEF6DF" d="M1268.7,852.1h-3.4v-1.6v-3.7V718.3v-5.2h3.4v-14.3h5.1v-5.1h-5.3l-1.8-5.4h-2l-1.1-3.2H984.1l-2.9,8.6
						h-9.1v5.1h1.5v5.4h3.8v14.3h2.9v5.2h0.2v128.6h-0.2v5.2h-2.9v14.3h-5.3v0.4h301.6v-0.4h-1.2v-5.4h-3.8V852.1z M1071.1,852.3
						h-0.2v5.2h-2.9v14.3h-67.2v-5.4h-3.8v-14.3h-3.4v-1.6v-3.7V718.3v-5.2h3.4v-14.3h67.2v5.4h3.8v14.3h2.9v5.2h0.2V852.3z
						 M1161.7,852.3h-0.2v5.2h-2.9v14.3h-67.2v-5.4h-3.8v-14.3h-3.4v-1.6v-3.7V718.3v-5.2h3.4v-14.3h67.2v5.4h3.8v14.3h2.9v5.2h0.2
						V852.3z M1252.2,852.3h-0.2v5.2h-2.9v14.3h-67.2v-5.4h-3.8v-14.3h-3.4v-1.6v-3.7V718.3v-5.2h3.4v-14.3h67.2v5.4h3.8v14.3h2.9
						v5.2h0.2V852.3z"/>
				</g>
			</g>
			<polygon fill="#8C4546" points="760.3,873.2 760.3,865 760.3,865 760.3,864.6 760.3,863 767,863 767,823.8 583.5,823.8 
				583.5,863 590.1,863 590.1,863.5 590.1,865 590.1,870.2 590.1,870.7 590.1,870.8 590.1,873.2 540.8,873.2 540.8,1026.3 
				590.1,1026.3 590.1,1034.5 590.1,1035.3 759.5,1035.3 759.5,1034.5 760.3,1034.5 760.3,1026.3 809.5,1026.3 809.5,873.2 			"/>
			<rect x="898.8" y="931.1" fill="#FEF6DF" width="448.2" height="4.3"/>
			<g>
				<g>
					<g>
						<rect x="586.7" y="859.6" fill="#4D5D8A" width="169.5" height="169.5"/>
						<g>
							<rect x="587.4" y="859.6" fill="#414A6B" width="57.3" height="168.7"/>
							<rect x="586.7" y="859.6" fill="#414A6B" width="167.9" height="35.9"/>
							<rect x="586.7" y="859.6" fill="#FEF6DF" width="13.7" height="169.5"/>
							<rect x="743.1" y="859.6" fill="#FEF6DF" width="13.7" height="169.5"/>
							<rect x="586.7" y="858" fill="#FEF6DF" width="169.5" height="14.5"/>
							<rect x="586.7" y="1019.3" fill="#FEF6DF" width="169.5" height="10.5"/>
							<path fill="#FEF6DF" d="M756.9,933.6v-10.5h-46.2v-21h42.6v-3.9h-42.6v-30.4h-3.9v30.4h-29.4v-38.6h-13.7v38.6h-29.4v-33.4
								h-3.9v33.4H590v3.9h40.6v21h-37v10.5h37v26.6h-39v3.9h39v64h3.9v-64h29.4v64.9h13.7v-64.9h29.4v58.8h3.9v-58.8h44.1v-3.9
								h-44.1v-26.6H756.9z M706.9,902.1v21h-29.4v-21H706.9z M634.4,902.1h29.4v21h-29.4V902.1z M634.4,960.3v-26.6h29.4v26.6
								H634.4z M706.9,960.3h-29.4v-26.6h29.4V960.3z"/>
						</g>
					</g>
					<polygon fill="#C4C0BB" points="756.1,855.4 756.1,855.3 586.7,855.3 586.7,855.4 586.7,856.2 586.7,857.5 586.7,864.7 
						586.7,865.3 586.7,865.3 756.1,865.3 756.1,865.3 756.9,865.3 756.9,859.7 756.9,859.1 756.9,855.4 					"/>
					<rect x="580.1" y="818.3" fill="#FEF6DF" width="183.5" height="39.2"/>
				</g>
				<rect x="537.4" y="867.8" fill="#414A6B" width="49.2" height="153"/>
				<g>
					<rect x="543.7" y="874" fill="#28324F" width="37.3" height="4.4"/>
					<rect x="543.7" y="882.4" fill="#28324F" width="37.3" height="4.4"/>
					<rect x="543.7" y="890.8" fill="#28324F" width="37.3" height="4.4"/>
					<rect x="543.7" y="899.2" fill="#28324F" width="37.3" height="4.4"/>
					<rect x="543.7" y="907.6" fill="#28324F" width="37.3" height="4.4"/>
					<rect x="543.7" y="916" fill="#28324F" width="37.3" height="4.4"/>
					<rect x="543.7" y="924.5" fill="#28324F" width="37.3" height="4.4"/>
					<rect x="543.7" y="932.9" fill="#28324F" width="37.3" height="4.4"/>
					<rect x="543.7" y="941.3" fill="#28324F" width="37.3" height="4.4"/>
					<rect x="543.7" y="949.7" fill="#28324F" width="37.3" height="4.4"/>
					<rect x="543.7" y="958.1" fill="#28324F" width="37.3" height="4.4"/>
					<rect x="543.7" y="966.5" fill="#28324F" width="37.3" height="4.4"/>
					<rect x="543.7" y="974.9" fill="#28324F" width="37.3" height="4.4"/>
					<rect x="543.7" y="983.3" fill="#28324F" width="37.3" height="4.4"/>
					<rect x="543.7" y="991.7" fill="#28324F" width="37.3" height="4.4"/>
					<rect x="543.7" y="1000.1" fill="#28324F" width="37.3" height="4.4"/>
					<rect x="543.7" y="1008.5" fill="#28324F" width="37.3" height="4.4"/>
				</g>
				<rect x="756.9" y="867.8" fill="#414A6B" width="49.2" height="153"/>
				<g>
					<rect x="763.2" y="874" fill="#28324F" width="37.3" height="4.4"/>
					<rect x="763.2" y="882.4" fill="#28324F" width="37.3" height="4.4"/>
					<rect x="763.2" y="890.8" fill="#28324F" width="37.3" height="4.4"/>
					<rect x="763.2" y="899.2" fill="#28324F" width="37.3" height="4.4"/>
					<rect x="763.2" y="907.6" fill="#28324F" width="37.3" height="4.4"/>
					<rect x="763.2" y="916" fill="#28324F" width="37.3" height="4.4"/>
					<rect x="763.2" y="924.5" fill="#28324F" width="37.3" height="4.4"/>
					<rect x="763.2" y="932.9" fill="#28324F" width="37.3" height="4.4"/>
					<rect x="763.2" y="941.3" fill="#28324F" width="37.3" height="4.4"/>
					<rect x="763.2" y="949.7" fill="#28324F" width="37.3" height="4.4"/>
					<rect x="763.2" y="958.1" fill="#28324F" width="37.3" height="4.4"/>
					<rect x="763.2" y="966.5" fill="#28324F" width="37.3" height="4.4"/>
					<rect x="763.2" y="974.9" fill="#28324F" width="37.3" height="4.4"/>
					<rect x="763.2" y="983.3" fill="#28324F" width="37.3" height="4.4"/>
					<rect x="763.2" y="991.7" fill="#28324F" width="37.3" height="4.4"/>
					<rect x="763.2" y="1000.1" fill="#28324F" width="37.3" height="4.4"/>
					<rect x="763.2" y="1008.5" fill="#28324F" width="37.3" height="4.4"/>
				</g>
			</g>
			<polygon fill="#8C4546" points="589.9,1384.3 760.1,1384.3 760.1,1375.2 809.3,1375.2 809.3,1150.2 760.1,1150.2 760.1,1138.1 
				759.4,1138.1 759.4,1135.8 589.9,1135.8 589.9,1150.2 540.7,1150.2 540.7,1375.2 589.9,1375.2 			"/>
			<g>
				<g>
					<g>
						<rect x="586.7" y="1134" fill="#4D5D8A" width="169.5" height="249.2"/>
						<g>
							<rect x="587.4" y="1134" fill="#414A6B" width="57.3" height="248.1"/>
							<rect x="586.7" y="1134" fill="#414A6B" width="167.9" height="52.8"/>
							<rect x="586.7" y="1134" fill="#FEF6DF" width="13.7" height="249.2"/>
							<rect x="743.1" y="1134" fill="#FEF6DF" width="13.7" height="249.2"/>
							<rect x="586.7" y="1131.8" fill="#FEF6DF" width="169.5" height="21.3"/>
							<rect x="586.7" y="1368.9" fill="#FEF6DF" width="169.5" height="15.5"/>
							<path fill="#FEF6DF" d="M756.9,1242.9v-15.5h-46.2v-30.9h42.6v-5.7h-42.6v-44.7h-3.9v44.7h-29.4V1134h-13.7v56.8h-29.4v-49.2
								h-3.9v49.2H590v5.7h40.6v30.9h-37v15.5h37v39.2h-39v5.7h39v94.1h3.9v-94.1h29.4v95.4h13.7v-95.4h29.4v86.4h3.9v-86.4h44.1
								v-5.7h-44.1v-39.2H756.9z M706.9,1196.5v30.9h-29.4v-30.9H706.9z M634.4,1196.5h29.4v30.9h-29.4V1196.5z M634.4,1282.1v-39.2
								h29.4v39.2H634.4z M706.9,1282.1h-29.4v-39.2h29.4V1282.1z"/>
						</g>
					</g>
				</g>
				<rect x="537.4" y="1146.1" fill="#414A6B" width="49.2" height="225"/>
				<g>
					<rect x="543.7" y="1155.3" fill="#28324F" width="37.3" height="6.5"/>
					<rect x="543.7" y="1167.6" fill="#28324F" width="37.3" height="6.5"/>
					<rect x="543.7" y="1180" fill="#28324F" width="37.3" height="6.5"/>
					<rect x="543.7" y="1192.3" fill="#28324F" width="37.3" height="6.5"/>
					<rect x="543.7" y="1204.7" fill="#28324F" width="37.3" height="6.5"/>
					<rect x="543.7" y="1217.1" fill="#28324F" width="37.3" height="6.5"/>
					<rect x="543.7" y="1229.4" fill="#28324F" width="37.3" height="6.5"/>
					<rect x="543.7" y="1241.8" fill="#28324F" width="37.3" height="6.5"/>
					<rect x="543.7" y="1254.1" fill="#28324F" width="37.3" height="6.5"/>
					<rect x="543.7" y="1266.5" fill="#28324F" width="37.3" height="6.5"/>
					<rect x="543.7" y="1278.8" fill="#28324F" width="37.3" height="6.5"/>
					<rect x="543.7" y="1291.2" fill="#28324F" width="37.3" height="6.5"/>
					<rect x="543.7" y="1303.6" fill="#28324F" width="37.3" height="6.5"/>
					<rect x="543.7" y="1315.9" fill="#28324F" width="37.3" height="6.5"/>
					<rect x="543.7" y="1328.3" fill="#28324F" width="37.3" height="6.5"/>
					<rect x="543.7" y="1340.6" fill="#28324F" width="37.3" height="6.5"/>
					<rect x="543.7" y="1353" fill="#28324F" width="37.3" height="6.5"/>
				</g>
				<rect x="756.9" y="1146.1" fill="#414A6B" width="49.2" height="225"/>
				<g>
					<rect x="763.2" y="1155.3" fill="#28324F" width="37.3" height="6.5"/>
					<rect x="763.2" y="1167.6" fill="#28324F" width="37.3" height="6.5"/>
					<rect x="763.2" y="1180" fill="#28324F" width="37.3" height="6.5"/>
					<rect x="763.2" y="1192.3" fill="#28324F" width="37.3" height="6.5"/>
					<rect x="763.2" y="1204.7" fill="#28324F" width="37.3" height="6.5"/>
					<rect x="763.2" y="1217.1" fill="#28324F" width="37.3" height="6.5"/>
					<rect x="763.2" y="1229.4" fill="#28324F" width="37.3" height="6.5"/>
					<rect x="763.2" y="1241.8" fill="#28324F" width="37.3" height="6.5"/>
					<rect x="763.2" y="1254.1" fill="#28324F" width="37.3" height="6.5"/>
					<rect x="763.2" y="1266.5" fill="#28324F" width="37.3" height="6.5"/>
					<rect x="763.2" y="1278.8" fill="#28324F" width="37.3" height="6.5"/>
					<rect x="763.2" y="1291.2" fill="#28324F" width="37.3" height="6.5"/>
					<rect x="763.2" y="1303.6" fill="#28324F" width="37.3" height="6.5"/>
					<rect x="763.2" y="1315.9" fill="#28324F" width="37.3" height="6.5"/>
					<rect x="763.2" y="1328.3" fill="#28324F" width="37.3" height="6.5"/>
					<rect x="763.2" y="1340.6" fill="#28324F" width="37.3" height="6.5"/>
					<rect x="763.2" y="1353" fill="#28324F" width="37.3" height="6.5"/>
				</g>
			</g>
			<g>
				<g>
					<g>
						<rect x="1485.8" y="859.6" fill="#4D5D8A" width="169.5" height="169.5"/>
						<g>
							<rect x="1486.6" y="859.6" fill="#414A6B" width="57.3" height="168.7"/>
							<rect x="1485.8" y="859.6" fill="#414A6B" width="167.9" height="35.9"/>
							<rect x="1485.8" y="859.6" fill="#FEF6DF" width="13.7" height="169.5"/>
							<rect x="1642.3" y="859.6" fill="#FEF6DF" width="13.7" height="169.5"/>
							<rect x="1485.8" y="858" fill="#FEF6DF" width="169.5" height="14.5"/>
							<rect x="1485.8" y="1019.3" fill="#FEF6DF" width="169.5" height="10.5"/>
							<path fill="#FEF6DF" d="M1656.1,933.6v-10.5h-46.2v-21h42.6v-3.9h-42.6v-30.4h-3.9v30.4h-29.4v-38.6h-13.7v38.6h-29.4v-33.4
								h-3.9v33.4h-40.6v3.9h40.6v21h-37v10.5h37v26.6h-39v3.9h39v64h3.9v-64h29.4v64.9h13.7v-64.9h29.4v58.8h3.9v-58.8h44.1v-3.9
								h-44.1v-26.6H1656.1z M1606,902.1v21h-29.4v-21H1606z M1533.6,902.1h29.4v21h-29.4V902.1z M1533.6,960.3v-26.6h29.4v26.6
								H1533.6z M1606,960.3h-29.4v-26.6h29.4V960.3z"/>
						</g>
					</g>
					<polygon fill="#C4C0BB" points="1655.3,855.4 1655.3,855.3 1485.8,855.3 1485.8,855.4 1485.8,856.2 1485.8,857.5 1485.8,864.7 
						1485.8,865.3 1485.8,865.3 1655.3,865.3 1655.3,865.3 1656.1,865.3 1656.1,859.7 1656.1,859.1 1656.1,855.4 					"/>
					<rect x="1479.3" y="818.3" fill="#FEF6DF" width="183.5" height="39.2"/>
				</g>
				<rect x="1436.6" y="867.8" fill="#414A6B" width="49.2" height="153"/>
				<g>
					<rect x="1442.9" y="874" fill="#28324F" width="37.3" height="4.4"/>
					<rect x="1442.9" y="882.4" fill="#28324F" width="37.3" height="4.4"/>
					<rect x="1442.9" y="890.8" fill="#28324F" width="37.3" height="4.4"/>
					<rect x="1442.9" y="899.2" fill="#28324F" width="37.3" height="4.4"/>
					<rect x="1442.9" y="907.6" fill="#28324F" width="37.3" height="4.4"/>
					<rect x="1442.9" y="916" fill="#28324F" width="37.3" height="4.4"/>
					<rect x="1442.9" y="924.5" fill="#28324F" width="37.3" height="4.4"/>
					<rect x="1442.9" y="932.9" fill="#28324F" width="37.3" height="4.4"/>
					<rect x="1442.9" y="941.3" fill="#28324F" width="37.3" height="4.4"/>
					<rect x="1442.9" y="949.7" fill="#28324F" width="37.3" height="4.4"/>
					<rect x="1442.9" y="958.1" fill="#28324F" width="37.3" height="4.4"/>
					<rect x="1442.9" y="966.5" fill="#28324F" width="37.3" height="4.4"/>
					<rect x="1442.9" y="974.9" fill="#28324F" width="37.3" height="4.4"/>
					<rect x="1442.9" y="983.3" fill="#28324F" width="37.3" height="4.4"/>
					<rect x="1442.9" y="991.7" fill="#28324F" width="37.3" height="4.4"/>
					<rect x="1442.9" y="1000.1" fill="#28324F" width="37.3" height="4.4"/>
					<rect x="1442.9" y="1008.5" fill="#28324F" width="37.3" height="4.4"/>
				</g>
				<rect x="1656.1" y="867.8" fill="#414A6B" width="49.2" height="153"/>
				<g>
					<rect x="1662.4" y="874" fill="#28324F" width="37.3" height="4.4"/>
					<rect x="1662.4" y="882.4" fill="#28324F" width="37.3" height="4.4"/>
					<rect x="1662.4" y="890.8" fill="#28324F" width="37.3" height="4.4"/>
					<rect x="1662.4" y="899.2" fill="#28324F" width="37.3" height="4.4"/>
					<rect x="1662.4" y="907.6" fill="#28324F" width="37.3" height="4.4"/>
					<rect x="1662.4" y="916" fill="#28324F" width="37.3" height="4.4"/>
					<rect x="1662.4" y="924.5" fill="#28324F" width="37.3" height="4.4"/>
					<rect x="1662.4" y="932.9" fill="#28324F" width="37.3" height="4.4"/>
					<rect x="1662.4" y="941.3" fill="#28324F" width="37.3" height="4.4"/>
					<rect x="1662.4" y="949.7" fill="#28324F" width="37.3" height="4.4"/>
					<rect x="1662.4" y="958.1" fill="#28324F" width="37.3" height="4.4"/>
					<rect x="1662.4" y="966.5" fill="#28324F" width="37.3" height="4.4"/>
					<rect x="1662.4" y="974.9" fill="#28324F" width="37.3" height="4.4"/>
					<rect x="1662.4" y="983.3" fill="#28324F" width="37.3" height="4.4"/>
					<rect x="1662.4" y="991.7" fill="#28324F" width="37.3" height="4.4"/>
					<rect x="1662.4" y="1000.1" fill="#28324F" width="37.3" height="4.4"/>
					<rect x="1662.4" y="1008.5" fill="#28324F" width="37.3" height="4.4"/>
				</g>
			</g>
			<g>
				<g>
					<g>
						<rect x="1485.8" y="1134" fill="#4D5D8A" width="169.5" height="249.2"/>
						<g>
							<rect x="1486.6" y="1134" fill="#414A6B" width="57.3" height="248.1"/>
							<rect x="1485.8" y="1134" fill="#414A6B" width="167.9" height="52.8"/>
							<rect x="1485.8" y="1134" fill="#FEF6DF" width="13.7" height="249.2"/>
							<rect x="1642.3" y="1134" fill="#FEF6DF" width="13.7" height="249.2"/>
							<rect x="1485.8" y="1131.8" fill="#FEF6DF" width="169.5" height="21.3"/>
							<rect x="1485.8" y="1368.9" fill="#FEF6DF" width="169.5" height="15.5"/>
							<path fill="#FEF6DF" d="M1656.1,1242.9v-15.5h-46.2v-30.9h42.6v-5.7h-42.6v-44.7h-3.9v44.7h-29.4V1134h-13.7v56.8h-29.4
								v-49.2h-3.9v49.2h-40.6v5.7h40.6v30.9h-37v15.5h37v39.2h-39v5.7h39v94.1h3.9v-94.1h29.4v95.4h13.7v-95.4h29.4v86.4h3.9v-86.4
								h44.1v-5.7h-44.1v-39.2H1656.1z M1606,1196.5v30.9h-29.4v-30.9H1606z M1533.6,1196.5h29.4v30.9h-29.4V1196.5z M1533.6,1282.1
								v-39.2h29.4v39.2H1533.6z M1606,1282.1h-29.4v-39.2h29.4V1282.1z"/>
						</g>
					</g>
				</g>
				<rect x="1436.6" y="1146.1" fill="#414A6B" width="49.2" height="225"/>
				<g>
					<rect x="1442.9" y="1155.3" fill="#28324F" width="37.3" height="6.5"/>
					<rect x="1442.9" y="1167.6" fill="#28324F" width="37.3" height="6.5"/>
					<rect x="1442.9" y="1180" fill="#28324F" width="37.3" height="6.5"/>
					<rect x="1442.9" y="1192.3" fill="#28324F" width="37.3" height="6.5"/>
					<rect x="1442.9" y="1204.7" fill="#28324F" width="37.3" height="6.5"/>
					<rect x="1442.9" y="1217.1" fill="#28324F" width="37.3" height="6.5"/>
					<rect x="1442.9" y="1229.4" fill="#28324F" width="37.3" height="6.5"/>
					<rect x="1442.9" y="1241.8" fill="#28324F" width="37.3" height="6.5"/>
					<rect x="1442.9" y="1254.1" fill="#28324F" width="37.3" height="6.5"/>
					<rect x="1442.9" y="1266.5" fill="#28324F" width="37.3" height="6.5"/>
					<rect x="1442.9" y="1278.8" fill="#28324F" width="37.3" height="6.5"/>
					<rect x="1442.9" y="1291.2" fill="#28324F" width="37.3" height="6.5"/>
					<rect x="1442.9" y="1303.6" fill="#28324F" width="37.3" height="6.5"/>
					<rect x="1442.9" y="1315.9" fill="#28324F" width="37.3" height="6.5"/>
					<rect x="1442.9" y="1328.3" fill="#28324F" width="37.3" height="6.5"/>
					<rect x="1442.9" y="1340.6" fill="#28324F" width="37.3" height="6.5"/>
					<rect x="1442.9" y="1353" fill="#28324F" width="37.3" height="6.5"/>
				</g>
				<rect x="1656.1" y="1146.1" fill="#414A6B" width="49.2" height="225"/>
				<g>
					<rect x="1662.4" y="1155.3" fill="#28324F" width="37.3" height="6.5"/>
					<rect x="1662.4" y="1167.6" fill="#28324F" width="37.3" height="6.5"/>
					<rect x="1662.4" y="1180" fill="#28324F" width="37.3" height="6.5"/>
					<rect x="1662.4" y="1192.3" fill="#28324F" width="37.3" height="6.5"/>
					<rect x="1662.4" y="1204.7" fill="#28324F" width="37.3" height="6.5"/>
					<rect x="1662.4" y="1217.1" fill="#28324F" width="37.3" height="6.5"/>
					<rect x="1662.4" y="1229.4" fill="#28324F" width="37.3" height="6.5"/>
					<rect x="1662.4" y="1241.8" fill="#28324F" width="37.3" height="6.5"/>
					<rect x="1662.4" y="1254.1" fill="#28324F" width="37.3" height="6.5"/>
					<rect x="1662.4" y="1266.5" fill="#28324F" width="37.3" height="6.5"/>
					<rect x="1662.4" y="1278.8" fill="#28324F" width="37.3" height="6.5"/>
					<rect x="1662.4" y="1291.2" fill="#28324F" width="37.3" height="6.5"/>
					<rect x="1662.4" y="1303.6" fill="#28324F" width="37.3" height="6.5"/>
					<rect x="1662.4" y="1315.9" fill="#28324F" width="37.3" height="6.5"/>
					<rect x="1662.4" y="1328.3" fill="#28324F" width="37.3" height="6.5"/>
					<rect x="1662.4" y="1340.6" fill="#28324F" width="37.3" height="6.5"/>
					<rect x="1662.4" y="1353" fill="#28324F" width="37.3" height="6.5"/>
				</g>
			</g>
			<g>
				<polygon fill="#2C385B" points="1479,638.2 1466.1,561.8 1564.2,519.9 				"/>
				<g>
					<path fill="#FEF6DF" d="M1570.3,638.2H1479v-89.9c0-17.7,14.3-32,32-32h27.3c17.7,0,32,14.3,32,32V638.2z"/>
					<g>
						<path fill="#E0D5BB" d="M1583.1,561.8h-17.7c0-21.1-17.2-38.3-38.3-38.3h-5.2c-21.1,0-38.3,17.2-38.3,38.3h-17.7
							c0-30.8,25.1-55.9,55.9-55.9h5.2C1558,505.9,1583.1,531,1583.1,561.8z"/>
					</g>
					<g>
						<path fill="#2C385B" d="M1495.2,627.4v-69.4c0-11,9-20,20-20h18.8c11,0,20,9,20,20v69.4H1495.2z"/>
						<polygon fill="#4D5D8A" points="1495.2,627.4 1495.2,620 1553.8,584.2 1553.8,591.6 						"/>
						<polygon fill="#4D5D8A" points="1495.2,612.8 1495.2,596.1 1553.8,560.3 1553.8,577 						"/>
						<rect x="1523.1" y="533.9" fill="#FEF6DF" width="2.9" height="97.7"/>
						<rect x="1490.2" y="564.5" fill="#FEF6DF" width="66.3" height="2.9"/>
						<rect x="1490.2" y="585.1" fill="#FEF6DF" width="66.3" height="2.9"/>
						<rect x="1490.2" y="605.8" fill="#FEF6DF" width="66.3" height="2.9"/>
					</g>
				</g>
			</g>
			<g>
				<polygon fill="#2C385B" points="762.7,638.2 775.5,561.8 677.5,519.9 				"/>
				<g>
					<path fill="#FEF6DF" d="M671.4,638.2h91.3v-89.9c0-17.7-14.3-32-32-32h-27.3c-17.7,0-32,14.3-32,32V638.2z"/>
					<g>
						<path fill="#E0D5BB" d="M658.5,561.8h17.7c0-21.1,17.2-38.3,38.3-38.3h5.2c21.1,0,38.3,17.2,38.3,38.3h17.7
							c0-30.8-25.1-55.9-55.9-55.9h-5.2C683.6,505.9,658.5,531,658.5,561.8z"/>
					</g>
					<g>
						<path fill="#2C385B" d="M746.5,627.4v-69.4c0-11-9-20-20-20h-18.8c-11,0-20,9-20,20v69.4H746.5z"/>
						<polygon fill="#4D5D8A" points="746.5,627.4 746.5,620 687.9,584.2 687.9,591.6 						"/>
						<polygon fill="#4D5D8A" points="746.5,612.8 746.5,596.1 687.9,560.3 687.9,577 						"/>
						<rect x="715.7" y="533.9" fill="#FEF6DF" width="2.9" height="97.7"/>
						<rect x="685.2" y="564.5" fill="#FEF6DF" width="66.3" height="2.9"/>
						<rect x="685.2" y="585.1" fill="#FEF6DF" width="66.3" height="2.9"/>
						<rect x="685.2" y="605.8" fill="#FEF6DF" width="66.3" height="2.9"/>
					</g>
				</g>
			</g>
			<path fill="#BD6F6F" d="M911.9,1189.2c-4.7-1.5-9.3-3-14-4.5v4.5H911.9z"/>
			<path fill="#AA5C61" d="M929,983.3h-27.8c-1.8,0-3.3-1.5-3.3-3.3v-10.1c0-1.8,1.5-3.3,3.3-3.3H929c1.8,0,3.3,1.5,3.3,3.3v10.1
				C932.4,981.8,930.9,983.3,929,983.3z"/>
			<path fill="#AA5C61" d="M957,1010.7h-27.8c-1.8,0-3.3-1.5-3.3-3.3v-10.1c0-1.8,1.5-3.3,3.3-3.3H957c1.8,0,3.3,1.5,3.3,3.3v10.1
				C960.3,1009.2,958.8,1010.7,957,1010.7z"/>
			<path fill="#9A4F57" d="M1748.9,1028.5h-27.8c-1.8,0-3.3-1.5-3.3-3.3V1015c0-1.8,1.5-3.3,3.3-3.3h27.8c1.8,0,3.3,1.5,3.3,3.3
				v10.1C1752.3,1027,1750.8,1028.5,1748.9,1028.5z"/>
			<path fill="#9A4F57" d="M1759.6,895.3h-27.8c-1.8,0-3.3-1.5-3.3-3.3v-10.1c0-1.8,1.5-3.3,3.3-3.3h27.8c1.8,0,3.3,1.5,3.3,3.3
				v10.1C1762.9,893.8,1761.4,895.3,1759.6,895.3z"/>
			<path fill="#9A4F57" d="M1451.8,851.1h-27.8c-1.8,0-3.3-1.5-3.3-3.3v-10.1c0-1.8,1.5-3.3,3.3-3.3h27.8c1.8,0,3.3,1.5,3.3,3.3
				v10.1C1455.1,849.6,1453.6,851.1,1451.8,851.1z"/>
			<path fill="#9A4F57" d="M1434.5,826.7h-27.8c-1.8,0-3.3-1.5-3.3-3.3v-10.1c0-1.8,1.5-3.3,3.3-3.3h27.8c1.8,0,3.3,1.5,3.3,3.3
				v10.1C1437.8,825.2,1436.3,826.7,1434.5,826.7z"/>
			<path fill="#9A4F57" d="M1776.9,1055.9H1749c-1.8,0-3.3-1.5-3.3-3.3v-10.1c0-1.8,1.5-3.3,3.3-3.3h27.8c1.8,0,3.3,1.5,3.3,3.3
				v10.1C1780.2,1054.5,1778.7,1055.9,1776.9,1055.9z"/>
			<path fill="#9A4F57" d="M1411.8,1191.7h-27.8c-1.8,0-3.3-1.5-3.3-3.3v-10.1c0-1.8,1.5-3.3,3.3-3.3h27.8c1.8,0,3.3,1.5,3.3,3.3
				v10.1C1415.1,1190.2,1413.6,1191.7,1411.8,1191.7z"/>
			<path fill="#9A4F57" d="M1777.9,1184.3h-27.8c-1.8,0-3.3-1.5-3.3-3.3v-10.1c0-1.8,1.5-3.3,3.3-3.3h27.8c1.8,0,3.3,1.5,3.3,3.3
				v10.1C1781.2,1182.8,1779.7,1184.3,1777.9,1184.3z"/>
			<path fill="#AA5C61" d="M1309,983.2h-27.8c-1.8,0-3.3-1.5-3.3-3.3v-10.1c0-1.8,1.5-3.3,3.3-3.3h27.8c1.8,0,3.3,1.5,3.3,3.3v10.1
				C1312.4,981.7,1310.9,983.2,1309,983.2z"/>
			<path fill="#AA5C61" d="M1124.9,909.9h-27.8c-1.8,0-3.3-1.5-3.3-3.3v-10.1c0-1.8,1.5-3.3,3.3-3.3h27.8c1.8,0,3.3,1.5,3.3,3.3
				v10.1C1128.3,908.4,1126.8,909.9,1124.9,909.9z"/>
			<path fill="#AA5C61" d="M1159.2,650.1h-27.8c-1.8,0-3.3-1.5-3.3-3.3v-10.1c0-1.8,1.5-3.3,3.3-3.3h27.8c1.8,0,3.3,1.5,3.3,3.3
				v10.1C1162.5,648.6,1161,650.1,1159.2,650.1z"/>
			<path fill="#AA5C61" d="M1203.1,626.8h-27.8c-1.8,0-3.3-1.5-3.3-3.3v-10.1c0-1.8,1.5-3.3,3.3-3.3h27.8c1.8,0,3.3,1.5,3.3,3.3
				v10.1C1206.5,625.3,1205,626.8,1203.1,626.8z"/>
			<path fill="#AA5C61" d="M1343.5,1008.5h-27.8c-1.8,0-3.3-1.5-3.3-3.3V995c0-1.8,1.5-3.3,3.3-3.3h27.8c1.8,0,3.3,1.5,3.3,3.3v10.1
				C1346.9,1007,1345.4,1008.5,1343.5,1008.5z"/>
			<path fill="#AA5C61" d="M1343.5,1232.6h-27.8c-1.8,0-3.3-1.5-3.3-3.3v-10.1c0-1.8,1.5-3.3,3.3-3.3h27.8c1.8,0,3.3,1.5,3.3,3.3
				v10.1C1346.9,1231.1,1345.4,1232.6,1343.5,1232.6z"/>
			<path fill="#AA5C61" d="M928.5,1232.6h-27.8c-1.8,0-3.3-1.5-3.3-3.3v-10.1c0-1.8,1.5-3.3,3.3-3.3h27.8c1.8,0,3.3,1.5,3.3,3.3
				v10.1C931.9,1231.1,930.4,1232.6,928.5,1232.6z"/>
			<path fill="#AA5C61" d="M946.3,1205.7h-27.8c-1.8,0-3.3-1.5-3.3-3.3v-10.1c0-1.8,1.5-3.3,3.3-3.3h27.8c1.8,0,3.3,1.5,3.3,3.3
				v10.1C949.6,1204.2,948.1,1205.7,946.3,1205.7z"/>
			<path fill="#AA5C61" d="M1281.5,1010.7h-27.8c-1.8,0-3.3-1.5-3.3-3.3v-10.1c0-1.8,1.5-3.3,3.3-3.3h27.8c1.8,0,3.3,1.5,3.3,3.3
				v10.1C1284.9,1009.2,1283.4,1010.7,1281.5,1010.7z"/>
			<path fill="#9A4F57" d="M520.6,1043.1h-27.8c-1.8,0-3.3-1.5-3.3-3.3v-10.1c0-1.8,1.5-3.3,3.3-3.3h27.8c1.8,0,3.3,1.5,3.3,3.3
				v10.1C524,1041.6,522.5,1043.1,520.6,1043.1z"/>
			<path fill="#9A4F57" d="M826.8,813h-27.8c-1.8,0-3.3-1.5-3.3-3.3v-10.1c0-1.8,1.5-3.3,3.3-3.3h27.8c1.8,0,3.3,1.5,3.3,3.3v10.1
				C830.1,811.5,828.6,813,826.8,813z"/>
			<path fill="#9A4F57" d="M555.2,1068.4h-27.8c-1.8,0-3.3-1.5-3.3-3.3v-10.1c0-1.8,1.5-3.3,3.3-3.3h27.8c1.8,0,3.3,1.5,3.3,3.3
				v10.1C558.5,1066.9,557,1068.4,555.2,1068.4z"/>
			<path fill="#9A4F57" d="M848.3,840.8h-27.8c-1.8,0-3.3-1.5-3.3-3.3v-10.1c0-1.8,1.5-3.3,3.3-3.3h27.8c1.8,0,3.3,1.5,3.3,3.3v10.1
				C851.7,839.3,850.2,840.8,848.3,840.8z"/>
			<path fill="#9A4F57" d="M857,1133.5h-27.8c-1.8,0-3.3-1.5-3.3-3.3V1120c0-1.8,1.5-3.3,3.3-3.3H857c1.8,0,3.3,1.5,3.3,3.3v10.1
				C860.4,1132,858.9,1133.5,857,1133.5z"/>
			<path fill="#9A4F57" d="M513.7,1216.4h-27.8c-1.8,0-3.3-1.5-3.3-3.3v-10.1c0-1.8,1.5-3.3,3.3-3.3h27.8c1.8,0,3.3,1.5,3.3,3.3
				v10.1C517.1,1214.9,515.6,1216.4,513.7,1216.4z"/>
			<path fill="#9A4F57" d="M531,1237.9h-27.8c-1.8,0-3.3-1.5-3.3-3.3v-10.1c0-1.8,1.5-3.3,3.3-3.3H531c1.8,0,3.3,1.5,3.3,3.3v10.1
				C534.3,1236.4,532.8,1237.9,531,1237.9z"/>
			<path fill="#9A4F57" d="M493.2,1070.6h-27.8c-1.8,0-3.3-1.5-3.3-3.3v-10.1c0-1.8,1.5-3.3,3.3-3.3h27.8c1.8,0,3.3,1.5,3.3,3.3
				v10.1C496.5,1069.1,495,1070.6,493.2,1070.6z"/>
		</g>
		<g>
			<g>
				<path fill-rule="evenodd" clip-rule="evenodd" fill="#365F2D" d="M807.8,1387.6c-2.7,1.1-5.7,1.7-8.9,1.6
					c-11.6-0.2-20.9-8.9-20.7-19.4c0.1-7.3,4.8-13.6,11.6-16.7c-0.3-1.3-0.4-2.6-0.4-4c0.2-8.7,6.7-15.9,15.6-18
					c-1-2.3-1.6-4.8-1.6-7.5c0.2-10.5,9.8-18.8,21.4-18.6c5.5,0.1,10.5,2.1,14.2,5.3c3.9-3.8,9.5-6.1,15.7-6
					c9.6,0.2,17.6,6.1,20,14.2c2.6-0.9,5.4-1.4,8.3-1.4c11.6,0.2,20.9,8.9,20.7,19.4c0,0.3,0,0.6,0,0.9c1.1-0.1,2.3-0.2,3.4-0.2
					c11.6,0.2,20.9,8.9,20.7,19.4c-0.1,7.3-4.9,13.6-11.7,16.7c2,3,3.1,6.4,3,10.2c-0.2,10.5-9.8,18.8-21.4,18.6
					c-5.5-0.1-10.4-2.1-14.1-5.3c-3.1,7.2-10.9,12.2-19.9,12c-8-0.1-14.9-4.3-18.3-10.3c-3.9,4.5-10.1,7.3-16.9,7.2
					C817.3,1405.5,808.4,1397.6,807.8,1387.6z"/>
				<path fill-rule="evenodd" clip-rule="evenodd" fill="#457437" d="M834.5,1307.4c1.6,0.8,3.1,1.8,4.5,3c2.2-2.1,5-3.8,8-4.8
					c3.4-1.2,8.4-2,14.7,0.1c6.3,2.2,11.2,7,12.9,12.9c2.6-0.9,5.4-1.4,8.3-1.4c11.6,0.2,20.9,8.9,20.7,19.4c0,0.3,0,0.6,0,0.9
					c1.1-0.1,2.3-0.2,3.4-0.2c9.8,0.2,17.8,6.3,20.1,14.5c-1.4,4.1-4.6,7.4-8.8,9.3c1.6,2.4,2.5,5.3,2.5,8.3c0,0.4,0,0.7-0.1,1.1
					c-1.4,1.1-3,2.1-4.7,2.9c0.9,1.3,1.6,2.7,2.1,4.1c-3.1,4.4-8.6,7.2-14.8,7.1c-4.5-0.1-8.5-1.7-11.6-4.3
					c-2.5,5.9-8.9,9.9-16.3,9.8c-6.5-0.1-12.2-3.5-15-8.4c-3.2,3.7-8.2,6-13.8,5.9c-9.1-0.2-16.4-6.7-16.9-14.8
					c-2.2,0.9-4.7,1.4-7.3,1.3c-9.5-0.2-17.1-7.3-16.9-15.9c0.1-6,4-11.1,9.5-13.6c-0.2-1.1-0.3-2.1-0.3-3.3
					c0.1-7.1,5.5-13,12.7-14.7c-0.9-1.9-1.3-4-1.3-6.1C826.3,1314.9,829.7,1310.1,834.5,1307.4z"/>
			</g>
			<g>
				<path fill-rule="evenodd" clip-rule="evenodd" fill="#699B50" d="M886.7,1330.3c1.5,0,2.7-1.1,2.7-2.6c0-1.5-1.1-2.7-2.6-2.7
					c-1.5,0-2.7,1.1-2.7,2.6C884.1,1329.1,885.3,1330.3,886.7,1330.3z"/>
				<circle fill-rule="evenodd" clip-rule="evenodd" fill="#84B26E" cx="887.7" cy="1326.5" r="1"/>
			</g>
			<g>
				<path fill-rule="evenodd" clip-rule="evenodd" fill="#699B50" d="M879.5,1337.5c1.5,0,2.7-1.1,2.7-2.6c0-1.5-1.1-2.7-2.6-2.7
					c-1.5,0-2.7,1.1-2.7,2.6C876.9,1336.3,878,1337.5,879.5,1337.5z"/>
				<circle fill-rule="evenodd" clip-rule="evenodd" fill="#84B26E" cx="880.5" cy="1333.7" r="1"/>
			</g>
			<g>
				<path fill-rule="evenodd" clip-rule="evenodd" fill="#699B50" d="M877.5,1329c1.5,0,2.7-1.1,2.7-2.6c0-1.5-1.1-2.7-2.6-2.7
					c-1.5,0-2.7,1.1-2.7,2.6C874.9,1327.8,876.1,1329,877.5,1329z"/>
				<circle fill-rule="evenodd" clip-rule="evenodd" fill="#84B26E" cx="878.5" cy="1325.2" r="1"/>
			</g>
			<g>
				<path fill-rule="evenodd" clip-rule="evenodd" fill="#699B50" d="M843.3,1320.4c1.5,0,2.7-1.1,2.7-2.6c0-1.5-1.1-2.7-2.6-2.7
					c-1.5,0-2.7,1.1-2.7,2.6C840.6,1319.1,841.8,1320.3,843.3,1320.4z"/>
				<circle fill-rule="evenodd" clip-rule="evenodd" fill="#84B26E" cx="844.2" cy="1316.5" r="1"/>
			</g>
			<g>
				<path fill-rule="evenodd" clip-rule="evenodd" fill="#699B50" d="M837,1326.9c1.5,0,2.7-1.1,2.7-2.6c0-1.5-1.1-2.7-2.6-2.7
					c-1.5,0-2.7,1.1-2.7,2.6C834.4,1325.6,835.5,1326.8,837,1326.9z"/>
				<circle fill-rule="evenodd" clip-rule="evenodd" fill="#84B26E" cx="838" cy="1323" r="1"/>
			</g>
			<g>
				<path fill-rule="evenodd" clip-rule="evenodd" fill="#699B50" d="M916.7,1353.5c1.5,0,2.7-1.1,2.7-2.6c0-1.5-1.1-2.7-2.6-2.7
					c-1.5,0-2.7,1.1-2.7,2.6S915.3,1353.5,916.7,1353.5z"/>
				<circle fill-rule="evenodd" clip-rule="evenodd" fill="#84B26E" cx="917.7" cy="1349.7" r="1"/>
			</g>
			<g>
				<path fill-rule="evenodd" clip-rule="evenodd" fill="#699B50" d="M914.7,1362.9c1.5,0,2.7-1.1,2.7-2.6c0-1.5-1.1-2.7-2.6-2.7
					c-1.5,0-2.7,1.1-2.7,2.6C912,1361.7,913.2,1362.9,914.7,1362.9z"/>
				<circle fill-rule="evenodd" clip-rule="evenodd" fill="#84B26E" cx="915.6" cy="1359.1" r="1"/>
			</g>
			<g>
				<path fill-rule="evenodd" clip-rule="evenodd" fill="#699B50" d="M802.3,1344.9c1.5,0,2.7-1.1,2.7-2.6c0-1.5-1.1-2.7-2.6-2.7
					c-1.5,0-2.7,1.1-2.7,2.6C799.6,1343.6,800.8,1344.8,802.3,1344.9z"/>
				<circle fill-rule="evenodd" clip-rule="evenodd" fill="#84B26E" cx="803.2" cy="1341" r="1"/>
			</g>
			<g>
				<path fill-rule="evenodd" clip-rule="evenodd" fill="#699B50" d="M810.1,1339.3c1.5,0,2.7-1.1,2.7-2.6c0-1.5-1.1-2.7-2.6-2.7
					c-1.5,0-2.7,1.1-2.7,2.6C807.5,1338.1,808.7,1339.3,810.1,1339.3z"/>
				<circle fill-rule="evenodd" clip-rule="evenodd" fill="#84B26E" cx="811.1" cy="1335.5" r="1"/>
			</g>
			<g>
				<path fill-rule="evenodd" clip-rule="evenodd" fill="#699B50" d="M788.1,1368.4c1.5,0,2.7-1.1,2.7-2.6c0-1.5-1.1-2.7-2.6-2.7
					c-1.5,0-2.7,1.1-2.7,2.6C785.5,1367.2,786.7,1368.4,788.1,1368.4z"/>
				<circle fill-rule="evenodd" clip-rule="evenodd" fill="#84B26E" cx="789.1" cy="1364.6" r="1"/>
			</g>
			<g>
				<path fill-rule="evenodd" clip-rule="evenodd" fill="#699B50" d="M811.8,1379.9c1.5,0,2.7-1.1,2.7-2.6c0-1.5-1.1-2.7-2.6-2.7
					c-1.5,0-2.7,1.1-2.7,2.6S810.3,1379.9,811.8,1379.9z"/>
				<circle fill-rule="evenodd" clip-rule="evenodd" fill="#84B26E" cx="812.7" cy="1376.1" r="1"/>
			</g>
			<g>
				<path fill-rule="evenodd" clip-rule="evenodd" fill="#699B50" d="M847.8,1356.3c1.5,0,2.7-1.1,2.7-2.6c0-1.5-1.1-2.7-2.6-2.7
					c-1.5,0-2.7,1.1-2.7,2.6C845.2,1355.1,846.3,1356.3,847.8,1356.3z"/>
				<circle fill-rule="evenodd" clip-rule="evenodd" fill="#84B26E" cx="848.7" cy="1352.5" r="1"/>
			</g>
			<g>
				<path fill-rule="evenodd" clip-rule="evenodd" fill="#699B50" d="M854.8,1361.4c1.5,0,2.7-1.1,2.7-2.6c0-1.5-1.1-2.7-2.6-2.7
					c-1.5,0-2.7,1.1-2.7,2.6C852.1,1360.1,853.3,1361.3,854.8,1361.4z"/>
				<circle fill-rule="evenodd" clip-rule="evenodd" fill="#84B26E" cx="855.7" cy="1357.5" r="1"/>
			</g>
			<g>
				<path fill-rule="evenodd" clip-rule="evenodd" fill="#699B50" d="M845.7,1366.6c1.5,0,2.7-1.1,2.7-2.6c0-1.5-1.1-2.7-2.6-2.7
					c-1.5,0-2.7,1.1-2.7,2.6C843.1,1365.4,844.3,1366.6,845.7,1366.6z"/>
				<circle fill-rule="evenodd" clip-rule="evenodd" fill="#84B26E" cx="846.7" cy="1362.8" r="1"/>
			</g>
			<g>
				<path fill-rule="evenodd" clip-rule="evenodd" fill="#699B50" d="M899,1370.4c1.5,0,2.7-1.1,2.7-2.6c0-1.5-1.1-2.7-2.6-2.7
					c-1.5,0-2.7,1.1-2.7,2.6S897.5,1370.4,899,1370.4z"/>
				<circle fill-rule="evenodd" clip-rule="evenodd" fill="#84B26E" cx="899.9" cy="1366.6" r="1"/>
			</g>
			<g>
				<path fill-rule="evenodd" clip-rule="evenodd" fill="#699B50" d="M893.6,1365.1c1.5,0,2.7-1.1,2.7-2.6c0-1.5-1.1-2.7-2.6-2.7
					c-1.5,0-2.7,1.1-2.7,2.6S892.2,1365.1,893.6,1365.1z"/>
				<circle fill-rule="evenodd" clip-rule="evenodd" fill="#84B26E" cx="894.6" cy="1361.3" r="1"/>
			</g>
		</g>
		<g>
			<g>
				<path fill-rule="evenodd" clip-rule="evenodd" fill="#365F2D" d="M1435.2,1387.6c2.7,1.1,5.7,1.7,8.9,1.6
					c11.6-0.2,20.9-8.9,20.7-19.4c-0.1-7.3-4.8-13.6-11.6-16.7c0.3-1.3,0.4-2.6,0.4-4c-0.2-8.7-6.7-15.9-15.6-18
					c1-2.3,1.6-4.8,1.6-7.5c-0.2-10.5-9.8-18.8-21.4-18.6c-5.5,0.1-10.5,2.1-14.2,5.3c-3.9-3.8-9.5-6.1-15.7-6
					c-9.6,0.2-17.6,6.1-20,14.2c-2.6-0.9-5.4-1.4-8.3-1.4c-11.6,0.2-20.9,8.9-20.7,19.4c0,0.3,0,0.6,0,0.9c-1.1-0.1-2.3-0.2-3.4-0.2
					c-11.6,0.2-20.9,8.9-20.7,19.4c0.1,7.3,4.9,13.6,11.7,16.7c-2,3-3.1,6.4-3,10.2c0.2,10.5,9.8,18.8,21.4,18.6
					c5.5-0.1,10.4-2.1,14.1-5.3c3.1,7.2,10.9,12.2,19.9,12c8-0.1,14.9-4.3,18.3-10.3c3.9,4.5,10.1,7.3,16.9,7.2
					C1425.7,1405.5,1434.7,1397.6,1435.2,1387.6z"/>
				<path fill-rule="evenodd" clip-rule="evenodd" fill="#457437" d="M1408.5,1307.4c-1.6,0.8-3.1,1.8-4.5,3c-2.2-2.1-5-3.8-8-4.8
					c-3.4-1.2-8.4-2-14.7,0.1c-6.3,2.2-11.2,7-12.9,12.9c-2.6-0.9-5.4-1.4-8.3-1.4c-11.6,0.2-20.9,8.9-20.7,19.4c0,0.3,0,0.6,0,0.9
					c-1.1-0.1-2.3-0.2-3.4-0.2c-9.8,0.2-17.8,6.3-20.1,14.5c1.4,4.1,4.6,7.4,8.8,9.3c-1.6,2.4-2.5,5.3-2.5,8.3c0,0.4,0,0.7,0.1,1.1
					c1.4,1.1,3,2.1,4.7,2.9c-0.9,1.3-1.6,2.7-2.1,4.1c3.1,4.4,8.6,7.2,14.8,7.1c4.5-0.1,8.5-1.7,11.6-4.3c2.5,5.9,8.9,9.9,16.3,9.8
					c6.5-0.1,12.2-3.5,15-8.4c3.2,3.7,8.2,6,13.8,5.9c9.1-0.2,16.4-6.7,16.9-14.8c2.2,0.9,4.7,1.4,7.3,1.3
					c9.5-0.2,17.1-7.3,16.9-15.9c-0.1-6-4-11.1-9.5-13.6c0.2-1.1,0.3-2.1,0.3-3.3c-0.1-7.1-5.5-13-12.7-14.7c0.9-1.9,1.3-4,1.3-6.1
					C1416.7,1314.9,1413.4,1310.1,1408.5,1307.4z"/>
			</g>
			<g>
				<path fill-rule="evenodd" clip-rule="evenodd" fill="#699B50" d="M1356.3,1330.3c-1.5,0-2.7-1.1-2.7-2.6c0-1.5,1.1-2.7,2.6-2.7
					c1.5,0,2.7,1.1,2.7,2.6C1359,1329.1,1357.8,1330.3,1356.3,1330.3z"/>
				<circle fill-rule="evenodd" clip-rule="evenodd" fill="#84B26E" cx="1355.4" cy="1326.5" r="1"/>
			</g>
			<g>
				<path fill-rule="evenodd" clip-rule="evenodd" fill="#699B50" d="M1363.5,1337.5c-1.5,0-2.7-1.1-2.7-2.6c0-1.5,1.1-2.7,2.6-2.7
					c1.5,0,2.7,1.1,2.7,2.6C1366.2,1336.3,1365,1337.5,1363.5,1337.5z"/>
				<circle fill-rule="evenodd" clip-rule="evenodd" fill="#84B26E" cx="1362.6" cy="1333.7" r="1"/>
			</g>
			<g>
				<path fill-rule="evenodd" clip-rule="evenodd" fill="#699B50" d="M1365.5,1329c-1.5,0-2.7-1.1-2.7-2.6c0-1.5,1.1-2.7,2.6-2.7
					c1.5,0,2.7,1.1,2.7,2.6S1367,1329,1365.5,1329z"/>
				<circle fill-rule="evenodd" clip-rule="evenodd" fill="#84B26E" cx="1364.6" cy="1325.2" r="1"/>
			</g>
			<g>
				<path fill-rule="evenodd" clip-rule="evenodd" fill="#699B50" d="M1399.8,1320.4c-1.5,0-2.7-1.1-2.7-2.6c0-1.5,1.1-2.7,2.6-2.7
					c1.5,0,2.7,1.1,2.7,2.6C1402.4,1319.1,1401.3,1320.3,1399.8,1320.4z"/>
				<circle fill-rule="evenodd" clip-rule="evenodd" fill="#84B26E" cx="1398.8" cy="1316.5" r="1"/>
			</g>
			<g>
				<path fill-rule="evenodd" clip-rule="evenodd" fill="#699B50" d="M1406,1326.9c-1.5,0-2.7-1.1-2.7-2.6c0-1.5,1.1-2.7,2.6-2.7
					c1.5,0,2.7,1.1,2.7,2.6C1408.7,1325.6,1407.5,1326.8,1406,1326.9z"/>
				<circle fill-rule="evenodd" clip-rule="evenodd" fill="#84B26E" cx="1405.1" cy="1323" r="1"/>
			</g>
			<g>
				<path fill-rule="evenodd" clip-rule="evenodd" fill="#699B50" d="M1326.3,1353.5c-1.5,0-2.7-1.1-2.7-2.6c0-1.5,1.1-2.7,2.6-2.7
					s2.7,1.1,2.7,2.6S1327.8,1353.5,1326.3,1353.5z"/>
				<circle fill-rule="evenodd" clip-rule="evenodd" fill="#84B26E" cx="1325.4" cy="1349.7" r="1"/>
			</g>
			<g>
				<path fill-rule="evenodd" clip-rule="evenodd" fill="#699B50" d="M1328.4,1362.9c-1.5,0-2.7-1.1-2.7-2.6c0-1.5,1.1-2.7,2.6-2.7
					c1.5,0,2.7,1.1,2.7,2.6C1331,1361.7,1329.8,1362.9,1328.4,1362.9z"/>
				<circle fill-rule="evenodd" clip-rule="evenodd" fill="#84B26E" cx="1327.4" cy="1359.1" r="1"/>
			</g>
			<g>
				<path fill-rule="evenodd" clip-rule="evenodd" fill="#699B50" d="M1440.8,1344.9c-1.5,0-2.7-1.1-2.7-2.6c0-1.5,1.1-2.7,2.6-2.7
					c1.5,0,2.7,1.1,2.7,2.6C1443.4,1343.6,1442.3,1344.8,1440.8,1344.9z"/>
				<circle fill-rule="evenodd" clip-rule="evenodd" fill="#84B26E" cx="1439.9" cy="1341" r="1"/>
			</g>
			<g>
				<path fill-rule="evenodd" clip-rule="evenodd" fill="#699B50" d="M1432.9,1339.3c-1.5,0-2.7-1.1-2.7-2.6c0-1.5,1.1-2.7,2.6-2.7
					c1.5,0,2.7,1.1,2.7,2.6S1434.4,1339.3,1432.9,1339.3z"/>
				<circle fill-rule="evenodd" clip-rule="evenodd" fill="#84B26E" cx="1432" cy="1335.5" r="1"/>
			</g>
			<g>
				<path fill-rule="evenodd" clip-rule="evenodd" fill="#699B50" d="M1454.9,1368.4c-1.5,0-2.7-1.1-2.7-2.6c0-1.5,1.1-2.7,2.6-2.7
					c1.5,0,2.7,1.1,2.7,2.6C1457.5,1367.2,1456.4,1368.4,1454.9,1368.4z"/>
				<circle fill-rule="evenodd" clip-rule="evenodd" fill="#84B26E" cx="1454" cy="1364.6" r="1"/>
			</g>
			<g>
				<path fill-rule="evenodd" clip-rule="evenodd" fill="#699B50" d="M1431.3,1379.9c-1.5,0-2.7-1.1-2.7-2.6c0-1.5,1.1-2.7,2.6-2.7
					c1.5,0,2.7,1.1,2.7,2.6S1432.8,1379.9,1431.3,1379.9z"/>
				<circle fill-rule="evenodd" clip-rule="evenodd" fill="#84B26E" cx="1430.3" cy="1376.1" r="1"/>
			</g>
			<g>
				<path fill-rule="evenodd" clip-rule="evenodd" fill="#699B50" d="M1395.2,1356.3c-1.5,0-2.7-1.1-2.7-2.6c0-1.5,1.1-2.7,2.6-2.7
					s2.7,1.1,2.7,2.6C1397.9,1355.1,1396.7,1356.3,1395.2,1356.3z"/>
				<circle fill-rule="evenodd" clip-rule="evenodd" fill="#84B26E" cx="1394.3" cy="1352.5" r="1"/>
			</g>
			<g>
				<path fill-rule="evenodd" clip-rule="evenodd" fill="#699B50" d="M1388.3,1361.4c-1.5,0-2.7-1.1-2.7-2.6c0-1.5,1.1-2.7,2.6-2.7
					c1.5,0,2.7,1.1,2.7,2.6C1390.9,1360.1,1389.7,1361.3,1388.3,1361.4z"/>
				<circle fill-rule="evenodd" clip-rule="evenodd" fill="#84B26E" cx="1387.3" cy="1357.5" r="1"/>
			</g>
			<g>
				<path fill-rule="evenodd" clip-rule="evenodd" fill="#699B50" d="M1397.3,1366.6c-1.5,0-2.7-1.1-2.7-2.6c0-1.5,1.1-2.7,2.6-2.7
					c1.5,0,2.7,1.1,2.7,2.6C1400,1365.4,1398.8,1366.6,1397.3,1366.6z"/>
				<circle fill-rule="evenodd" clip-rule="evenodd" fill="#84B26E" cx="1396.4" cy="1362.8" r="1"/>
			</g>
			<g>
				<path fill-rule="evenodd" clip-rule="evenodd" fill="#699B50" d="M1344.1,1370.4c-1.5,0-2.7-1.1-2.7-2.6c0-1.5,1.1-2.7,2.6-2.7
					c1.5,0,2.7,1.1,2.7,2.6S1345.5,1370.4,1344.1,1370.4z"/>
				<circle fill-rule="evenodd" clip-rule="evenodd" fill="#84B26E" cx="1343.1" cy="1366.6" r="1"/>
			</g>
			<g>
				<path fill-rule="evenodd" clip-rule="evenodd" fill="#699B50" d="M1349.4,1365.1c-1.5,0-2.7-1.1-2.7-2.6c0-1.5,1.1-2.7,2.6-2.7
					s2.7,1.1,2.7,2.6C1352.1,1363.9,1350.9,1365.1,1349.4,1365.1z"/>
				<circle fill-rule="evenodd" clip-rule="evenodd" fill="#84B26E" cx="1348.5" cy="1361.3" r="1"/>
			</g>
		</g>
		<g>
			<g>
				<path fill-rule="evenodd" clip-rule="evenodd" fill="#365F2D" d="M1857.8,1387.6c2.7,1.1,5.7,1.7,8.9,1.6
					c11.6-0.2,20.9-8.9,20.7-19.4c-0.1-7.3-4.8-13.6-11.6-16.7c0.3-1.3,0.4-2.6,0.4-4c-0.2-8.7-6.7-15.9-15.6-18
					c1-2.3,1.6-4.8,1.6-7.5c-0.2-10.5-9.8-18.8-21.4-18.6c-5.5,0.1-10.5,2.1-14.2,5.3c-3.9-3.8-9.5-6.1-15.7-6
					c-9.6,0.2-17.6,6.1-20,14.2c-2.6-0.9-5.4-1.4-8.3-1.4c-11.6,0.2-20.9,8.9-20.7,19.4c0,0.3,0,0.6,0,0.9c-1.1-0.1-2.3-0.2-3.4-0.2
					c-11.6,0.2-20.9,8.9-20.7,19.4c0.1,7.3,4.9,13.6,11.7,16.7c-2,3-3.1,6.4-3,10.2c0.2,10.5,9.8,18.8,21.4,18.6
					c5.5-0.1,10.4-2.1,14.1-5.3c3.1,7.2,10.9,12.2,19.9,12c8-0.1,14.9-4.3,18.3-10.3c3.9,4.5,10.1,7.3,16.9,7.2
					C1848.3,1405.5,1857.3,1397.6,1857.8,1387.6z"/>
				<path fill-rule="evenodd" clip-rule="evenodd" fill="#457437" d="M1831.1,1307.4c-1.6,0.8-3.1,1.8-4.5,3c-2.2-2.1-5-3.8-8-4.8
					c-3.4-1.2-8.4-2-14.7,0.1c-6.3,2.2-11.2,7-12.9,12.9c-2.6-0.9-5.4-1.4-8.3-1.4c-11.6,0.2-20.9,8.9-20.7,19.4c0,0.3,0,0.6,0,0.9
					c-1.1-0.1-2.3-0.2-3.4-0.2c-9.8,0.2-17.8,6.3-20.1,14.5c1.4,4.1,4.6,7.4,8.8,9.3c-1.6,2.4-2.5,5.3-2.5,8.3c0,0.4,0,0.7,0.1,1.1
					c1.4,1.1,3,2.1,4.7,2.9c-0.9,1.3-1.6,2.7-2.1,4.1c3.1,4.4,8.6,7.2,14.8,7.1c4.5-0.1,8.5-1.7,11.6-4.3c2.5,5.9,8.9,9.9,16.3,9.8
					c6.5-0.1,12.2-3.5,15-8.4c3.2,3.7,8.2,6,13.8,5.9c9.1-0.2,16.4-6.7,16.9-14.8c2.2,0.9,4.7,1.4,7.3,1.3
					c9.5-0.2,17.1-7.3,16.9-15.9c-0.1-6-4-11.1-9.5-13.6c0.2-1.1,0.3-2.1,0.3-3.3c-0.1-7.1-5.5-13-12.7-14.7c0.9-1.9,1.3-4,1.3-6.1
					C1839.3,1314.9,1836,1310.1,1831.1,1307.4z"/>
			</g>
			<g>
				<path fill-rule="evenodd" clip-rule="evenodd" fill="#699B50" d="M1778.9,1330.3c-1.5,0-2.7-1.1-2.7-2.6c0-1.5,1.1-2.7,2.6-2.7
					c1.5,0,2.7,1.1,2.7,2.6C1781.6,1329.1,1780.4,1330.3,1778.9,1330.3z"/>
				<circle fill-rule="evenodd" clip-rule="evenodd" fill="#84B26E" cx="1778" cy="1326.5" r="1"/>
			</g>
			<g>
				<path fill-rule="evenodd" clip-rule="evenodd" fill="#699B50" d="M1786.1,1337.5c-1.5,0-2.7-1.1-2.7-2.6c0-1.5,1.1-2.7,2.6-2.7
					c1.5,0,2.7,1.1,2.7,2.6C1788.8,1336.3,1787.6,1337.5,1786.1,1337.5z"/>
				<circle fill-rule="evenodd" clip-rule="evenodd" fill="#84B26E" cx="1785.2" cy="1333.7" r="1"/>
			</g>
			<g>
				<path fill-rule="evenodd" clip-rule="evenodd" fill="#699B50" d="M1788.1,1329c-1.5,0-2.7-1.1-2.7-2.6c0-1.5,1.1-2.7,2.6-2.7
					c1.5,0,2.7,1.1,2.7,2.6S1789.6,1329,1788.1,1329z"/>
				<circle fill-rule="evenodd" clip-rule="evenodd" fill="#84B26E" cx="1787.2" cy="1325.2" r="1"/>
			</g>
			<g>
				<path fill-rule="evenodd" clip-rule="evenodd" fill="#699B50" d="M1822.4,1320.4c-1.5,0-2.7-1.1-2.7-2.6c0-1.5,1.1-2.7,2.6-2.7
					c1.5,0,2.7,1.1,2.7,2.6C1825,1319.1,1823.8,1320.3,1822.4,1320.4z"/>
				<circle fill-rule="evenodd" clip-rule="evenodd" fill="#84B26E" cx="1821.4" cy="1316.5" r="1"/>
			</g>
			<g>
				<path fill-rule="evenodd" clip-rule="evenodd" fill="#699B50" d="M1828.6,1326.9c-1.5,0-2.7-1.1-2.7-2.6c0-1.5,1.1-2.7,2.6-2.7
					s2.7,1.1,2.7,2.6C1831.3,1325.6,1830.1,1326.8,1828.6,1326.9z"/>
				<circle fill-rule="evenodd" clip-rule="evenodd" fill="#84B26E" cx="1827.7" cy="1323" r="1"/>
			</g>
			<g>
				<path fill-rule="evenodd" clip-rule="evenodd" fill="#699B50" d="M1748.9,1353.5c-1.5,0-2.7-1.1-2.7-2.6c0-1.5,1.1-2.7,2.6-2.7
					c1.5,0,2.7,1.1,2.7,2.6C1751.6,1352.3,1750.4,1353.5,1748.9,1353.5z"/>
				<circle fill-rule="evenodd" clip-rule="evenodd" fill="#84B26E" cx="1748" cy="1349.7" r="1"/>
			</g>
			<g>
				<path fill-rule="evenodd" clip-rule="evenodd" fill="#699B50" d="M1751,1362.9c-1.5,0-2.7-1.1-2.7-2.6c0-1.5,1.1-2.7,2.6-2.7
					s2.7,1.1,2.7,2.6C1753.6,1361.7,1752.4,1362.9,1751,1362.9z"/>
				<circle fill-rule="evenodd" clip-rule="evenodd" fill="#84B26E" cx="1750" cy="1359.1" r="1"/>
			</g>
			<g>
				<path fill-rule="evenodd" clip-rule="evenodd" fill="#699B50" d="M1863.4,1344.9c-1.5,0-2.7-1.1-2.7-2.6c0-1.5,1.1-2.7,2.6-2.7
					s2.7,1.1,2.7,2.6C1866,1343.6,1864.9,1344.8,1863.4,1344.9z"/>
				<circle fill-rule="evenodd" clip-rule="evenodd" fill="#84B26E" cx="1862.4" cy="1341" r="1"/>
			</g>
			<g>
				<path fill-rule="evenodd" clip-rule="evenodd" fill="#699B50" d="M1855.5,1339.3c-1.5,0-2.7-1.1-2.7-2.6c0-1.5,1.1-2.7,2.6-2.7
					c1.5,0,2.7,1.1,2.7,2.6S1857,1339.3,1855.5,1339.3z"/>
				<circle fill-rule="evenodd" clip-rule="evenodd" fill="#84B26E" cx="1854.6" cy="1335.5" r="1"/>
			</g>
			<g>
				<path fill-rule="evenodd" clip-rule="evenodd" fill="#699B50" d="M1877.5,1368.4c-1.5,0-2.7-1.1-2.7-2.6c0-1.5,1.1-2.7,2.6-2.7
					c1.5,0,2.7,1.1,2.7,2.6C1880.1,1367.2,1879,1368.4,1877.5,1368.4z"/>
				<circle fill-rule="evenodd" clip-rule="evenodd" fill="#84B26E" cx="1876.6" cy="1364.6" r="1"/>
			</g>
			<g>
				<path fill-rule="evenodd" clip-rule="evenodd" fill="#699B50" d="M1853.9,1379.9c-1.5,0-2.7-1.1-2.7-2.6c0-1.5,1.1-2.7,2.6-2.7
					s2.7,1.1,2.7,2.6S1855.3,1379.9,1853.9,1379.9z"/>
				<circle fill-rule="evenodd" clip-rule="evenodd" fill="#84B26E" cx="1852.9" cy="1376.1" r="1"/>
			</g>
			<g>
				<path fill-rule="evenodd" clip-rule="evenodd" fill="#699B50" d="M1817.8,1356.3c-1.5,0-2.7-1.1-2.7-2.6c0-1.5,1.1-2.7,2.6-2.7
					c1.5,0,2.7,1.1,2.7,2.6C1820.5,1355.1,1819.3,1356.3,1817.8,1356.3z"/>
				<circle fill-rule="evenodd" clip-rule="evenodd" fill="#84B26E" cx="1816.9" cy="1352.5" r="1"/>
			</g>
			<g>
				<path fill-rule="evenodd" clip-rule="evenodd" fill="#699B50" d="M1810.9,1361.4c-1.5,0-2.7-1.1-2.7-2.6c0-1.5,1.1-2.7,2.6-2.7
					c1.5,0,2.7,1.1,2.7,2.6C1813.5,1360.1,1812.3,1361.3,1810.9,1361.4z"/>
				<circle fill-rule="evenodd" clip-rule="evenodd" fill="#84B26E" cx="1809.9" cy="1357.5" r="1"/>
			</g>
			<g>
				<path fill-rule="evenodd" clip-rule="evenodd" fill="#699B50" d="M1819.9,1366.6c-1.5,0-2.7-1.1-2.7-2.6c0-1.5,1.1-2.7,2.6-2.7
					c1.5,0,2.7,1.1,2.7,2.6C1822.6,1365.4,1821.4,1366.6,1819.9,1366.6z"/>
				<circle fill-rule="evenodd" clip-rule="evenodd" fill="#84B26E" cx="1819" cy="1362.8" r="1"/>
			</g>
			<g>
				<path fill-rule="evenodd" clip-rule="evenodd" fill="#699B50" d="M1766.7,1370.4c-1.5,0-2.7-1.1-2.7-2.6c0-1.5,1.1-2.7,2.6-2.7
					s2.7,1.1,2.7,2.6S1768.1,1370.4,1766.7,1370.4z"/>
				<circle fill-rule="evenodd" clip-rule="evenodd" fill="#84B26E" cx="1765.7" cy="1366.6" r="1"/>
			</g>
			<g>
				<path fill-rule="evenodd" clip-rule="evenodd" fill="#699B50" d="M1772,1365.1c-1.5,0-2.7-1.1-2.7-2.6c0-1.5,1.1-2.7,2.6-2.7
					c1.5,0,2.7,1.1,2.7,2.6S1773.5,1365.1,1772,1365.1z"/>
				<circle fill-rule="evenodd" clip-rule="evenodd" fill="#84B26E" cx="1771.1" cy="1361.3" r="1"/>
			</g>
		</g>
		<g>
			<g>
				<path fill-rule="evenodd" clip-rule="evenodd" fill="#365F2D" d="M385.2,1387.6c-2.7,1.1-5.7,1.7-8.9,1.6
					c-11.6-0.2-20.9-8.9-20.7-19.4c0.1-7.3,4.8-13.6,11.6-16.7c-0.3-1.3-0.4-2.6-0.4-4c0.2-8.7,6.7-15.9,15.6-18
					c-1-2.3-1.6-4.8-1.6-7.5c0.2-10.5,9.8-18.8,21.4-18.6c5.5,0.1,10.5,2.1,14.2,5.3c3.9-3.8,9.5-6.1,15.7-6
					c9.6,0.2,17.6,6.1,20,14.2c2.6-0.9,5.4-1.4,8.3-1.4c11.6,0.2,20.9,8.9,20.7,19.4c0,0.3,0,0.6,0,0.9c1.1-0.1,2.3-0.2,3.4-0.2
					c11.6,0.2,20.9,8.9,20.7,19.4c-0.1,7.3-4.9,13.6-11.7,16.7c2,3,3.1,6.4,3,10.2c-0.2,10.5-9.8,18.8-21.4,18.6
					c-5.5-0.1-10.4-2.1-14.1-5.3c-3.1,7.2-10.9,12.2-19.9,12c-8-0.1-14.9-4.3-18.3-10.3c-3.9,4.5-10.1,7.3-16.9,7.2
					C394.7,1405.5,385.8,1397.6,385.2,1387.6z"/>
				<path fill-rule="evenodd" clip-rule="evenodd" fill="#457437" d="M412,1307.4c1.6,0.8,3.1,1.8,4.5,3c2.2-2.1,5-3.8,8-4.8
					c3.4-1.2,8.4-2,14.7,0.1c6.3,2.2,11.2,7,12.9,12.9c2.6-0.9,5.4-1.4,8.3-1.4c11.6,0.2,20.9,8.9,20.7,19.4c0,0.3,0,0.6,0,0.9
					c1.1-0.1,2.3-0.2,3.4-0.2c9.8,0.2,17.8,6.3,20.1,14.5c-1.4,4.1-4.6,7.4-8.8,9.3c1.6,2.4,2.5,5.3,2.5,8.3c0,0.4,0,0.7-0.1,1.1
					c-1.4,1.1-3,2.1-4.7,2.9c0.9,1.3,1.6,2.7,2.1,4.1c-3.1,4.4-8.6,7.2-14.8,7.1c-4.5-0.1-8.5-1.7-11.6-4.3
					c-2.5,5.9-8.9,9.9-16.3,9.8c-6.5-0.1-12.2-3.5-15-8.4c-3.2,3.7-8.2,6-13.8,5.9c-9.1-0.2-16.4-6.7-16.9-14.8
					c-2.2,0.9-4.7,1.4-7.3,1.3c-9.5-0.2-17.1-7.3-16.9-15.9c0.1-6,4-11.1,9.5-13.6c-0.2-1.1-0.3-2.1-0.3-3.3
					c0.1-7.1,5.5-13,12.7-14.7c-0.9-1.9-1.3-4-1.3-6.1C403.8,1314.9,407.1,1310.1,412,1307.4z"/>
			</g>
			<g>
				<path fill-rule="evenodd" clip-rule="evenodd" fill="#699B50" d="M464.1,1330.3c1.5,0,2.7-1.1,2.7-2.6c0-1.5-1.1-2.7-2.6-2.7
					c-1.5,0-2.7,1.1-2.7,2.6C461.5,1329.1,462.7,1330.3,464.1,1330.3z"/>
				<circle fill-rule="evenodd" clip-rule="evenodd" fill="#84B26E" cx="465.1" cy="1326.5" r="1"/>
			</g>
			<g>
				<path fill-rule="evenodd" clip-rule="evenodd" fill="#699B50" d="M456.9,1337.5c1.5,0,2.7-1.1,2.7-2.6c0-1.5-1.1-2.7-2.6-2.7
					c-1.5,0-2.7,1.1-2.7,2.6C454.3,1336.3,455.5,1337.5,456.9,1337.5z"/>
				<circle fill-rule="evenodd" clip-rule="evenodd" fill="#84B26E" cx="457.9" cy="1333.7" r="1"/>
			</g>
			<g>
				<path fill-rule="evenodd" clip-rule="evenodd" fill="#699B50" d="M455,1329c1.5,0,2.7-1.1,2.7-2.6c0-1.5-1.1-2.7-2.6-2.7
					c-1.5,0-2.7,1.1-2.7,2.6C452.3,1327.8,453.5,1329,455,1329z"/>
				<circle fill-rule="evenodd" clip-rule="evenodd" fill="#84B26E" cx="455.9" cy="1325.2" r="1"/>
			</g>
			<g>
				<path fill-rule="evenodd" clip-rule="evenodd" fill="#699B50" d="M420.7,1320.4c1.5,0,2.7-1.1,2.7-2.6c0-1.5-1.1-2.7-2.6-2.7
					c-1.5,0-2.7,1.1-2.7,2.6C418,1319.1,419.2,1320.3,420.7,1320.4z"/>
				<circle fill-rule="evenodd" clip-rule="evenodd" fill="#84B26E" cx="421.6" cy="1316.5" r="1"/>
			</g>
			<g>
				<path fill-rule="evenodd" clip-rule="evenodd" fill="#699B50" d="M414.4,1326.9c1.5,0,2.7-1.1,2.7-2.6c0-1.5-1.1-2.7-2.6-2.7
					c-1.5,0-2.7,1.1-2.7,2.6C411.8,1325.6,413,1326.8,414.4,1326.9z"/>
				<circle fill-rule="evenodd" clip-rule="evenodd" fill="#84B26E" cx="415.4" cy="1323" r="1"/>
			</g>
			<g>
				<path fill-rule="evenodd" clip-rule="evenodd" fill="#699B50" d="M494.1,1353.5c1.5,0,2.7-1.1,2.7-2.6c0-1.5-1.1-2.7-2.6-2.7
					c-1.5,0-2.7,1.1-2.7,2.6C491.5,1352.3,492.7,1353.5,494.1,1353.5z"/>
				<circle fill-rule="evenodd" clip-rule="evenodd" fill="#84B26E" cx="495.1" cy="1349.7" r="1"/>
			</g>
			<g>
				<path fill-rule="evenodd" clip-rule="evenodd" fill="#699B50" d="M492.1,1362.9c1.5,0,2.7-1.1,2.7-2.6c0-1.5-1.1-2.7-2.6-2.7
					c-1.5,0-2.7,1.1-2.7,2.6C489.4,1361.7,490.6,1362.9,492.1,1362.9z"/>
				<circle fill-rule="evenodd" clip-rule="evenodd" fill="#84B26E" cx="493" cy="1359.1" r="1"/>
			</g>
			<g>
				<path fill-rule="evenodd" clip-rule="evenodd" fill="#699B50" d="M379.7,1344.9c1.5,0,2.7-1.1,2.7-2.6c0-1.5-1.1-2.7-2.6-2.7
					c-1.5,0-2.7,1.1-2.7,2.6C377,1343.6,378.2,1344.8,379.7,1344.9z"/>
				<circle fill-rule="evenodd" clip-rule="evenodd" fill="#84B26E" cx="380.6" cy="1341" r="1"/>
			</g>
			<g>
				<path fill-rule="evenodd" clip-rule="evenodd" fill="#699B50" d="M387.5,1339.3c1.5,0,2.7-1.1,2.7-2.6c0-1.5-1.1-2.7-2.6-2.7
					c-1.5,0-2.7,1.1-2.7,2.6S386.1,1339.3,387.5,1339.3z"/>
				<circle fill-rule="evenodd" clip-rule="evenodd" fill="#84B26E" cx="388.5" cy="1335.5" r="1"/>
			</g>
			<g>
				<path fill-rule="evenodd" clip-rule="evenodd" fill="#699B50" d="M365.6,1368.4c1.5,0,2.7-1.1,2.7-2.6c0-1.5-1.1-2.7-2.6-2.7
					c-1.5,0-2.7,1.1-2.7,2.6C362.9,1367.2,364.1,1368.4,365.6,1368.4z"/>
				<circle fill-rule="evenodd" clip-rule="evenodd" fill="#84B26E" cx="366.5" cy="1364.6" r="1"/>
			</g>
			<g>
				<path fill-rule="evenodd" clip-rule="evenodd" fill="#699B50" d="M389.2,1379.9c1.5,0,2.7-1.1,2.7-2.6c0-1.5-1.1-2.7-2.6-2.7
					c-1.5,0-2.7,1.1-2.7,2.6C386.5,1378.7,387.7,1379.9,389.2,1379.9z"/>
				<circle fill-rule="evenodd" clip-rule="evenodd" fill="#84B26E" cx="390.1" cy="1376.1" r="1"/>
			</g>
			<g>
				<path fill-rule="evenodd" clip-rule="evenodd" fill="#699B50" d="M425.2,1356.3c1.5,0,2.7-1.1,2.7-2.6c0-1.5-1.1-2.7-2.6-2.7
					c-1.5,0-2.7,1.1-2.7,2.6C422.6,1355.1,423.7,1356.3,425.2,1356.3z"/>
				<circle fill-rule="evenodd" clip-rule="evenodd" fill="#84B26E" cx="426.2" cy="1352.5" r="1"/>
			</g>
			<g>
				<path fill-rule="evenodd" clip-rule="evenodd" fill="#699B50" d="M432.2,1361.4c1.5,0,2.7-1.1,2.7-2.6c0-1.5-1.1-2.7-2.6-2.7
					c-1.5,0-2.7,1.1-2.7,2.6C429.6,1360.1,430.7,1361.3,432.2,1361.4z"/>
				<circle fill-rule="evenodd" clip-rule="evenodd" fill="#84B26E" cx="433.1" cy="1357.5" r="1"/>
			</g>
			<g>
				<path fill-rule="evenodd" clip-rule="evenodd" fill="#699B50" d="M423.1,1366.6c1.5,0,2.7-1.1,2.7-2.6c0-1.5-1.1-2.7-2.6-2.7
					c-1.5,0-2.7,1.1-2.7,2.6C420.5,1365.4,421.7,1366.6,423.1,1366.6z"/>
				<circle fill-rule="evenodd" clip-rule="evenodd" fill="#84B26E" cx="424.1" cy="1362.8" r="1"/>
			</g>
			<g>
				<path fill-rule="evenodd" clip-rule="evenodd" fill="#699B50" d="M476.4,1370.4c1.5,0,2.7-1.1,2.7-2.6c0-1.5-1.1-2.7-2.6-2.7
					c-1.5,0-2.7,1.1-2.7,2.6C473.7,1369.2,474.9,1370.4,476.4,1370.4z"/>
				<circle fill-rule="evenodd" clip-rule="evenodd" fill="#84B26E" cx="477.3" cy="1366.6" r="1"/>
			</g>
			<g>
				<path fill-rule="evenodd" clip-rule="evenodd" fill="#699B50" d="M471,1365.1c1.5,0,2.7-1.1,2.7-2.6c0-1.5-1.1-2.7-2.6-2.7
					c-1.5,0-2.7,1.1-2.7,2.6S469.6,1365.1,471,1365.1z"/>
				<circle fill-rule="evenodd" clip-rule="evenodd" fill="#84B26E" cx="472" cy="1361.3" r="1"/>
			</g>
		</g>
	</g>
	<path fill="#FCF7BB" d="M2039.2,1469.1h-705.9c-20.6,0-39.3-12.2-47.5-31.1l-22.6-51.9h-285l-21.8,51.4
		c-8.1,19.1-26.9,31.6-47.7,31.6H235c-25.8,0-47.4,21.1-47.1,46.9c0.3,25.1,21,45.6,46.2,45.6H2040c25.2,0,45.9-20.5,46.2-45.6
		C2086.6,1490.2,2065,1469.1,2039.2,1469.1z"/>
	<path fill="#C9EAF5" d="M489.6,509.5c-2-8.9-9.3-15.5-17.9-15.5c-0.4,0-0.8,0-1.2,0c0.8-3.4,1.2-7,1.2-10.6
		c0-23.6-17.2-42.6-38.5-42.6c-9.6,0-18.4,3.9-25.1,10.4c-9.9-22.3-30.6-37.6-54.5-37.6c-31,0-56.6,25.8-60.2,59.1
		c-0.7,0-1.3-0.1-2-0.1c-16.2,0-29.3,14.6-29.3,32.5c0,1.5,0.1,3,0.3,4.4H489.6z"/>
	<path fill="#C9EAF5" d="M1198.6,295.2c-1.6-6.9-7.2-12-13.9-12c-0.3,0-0.6,0-0.9,0c0.6-2.6,0.9-5.4,0.9-8.2c0-18.2-13.3-33-29.8-33
		c-7.4,0-14.2,3-19.4,8c-7.7-17.2-23.6-29.1-42.1-29.1c-24,0-43.8,20-46.6,45.7c-0.5,0-1-0.1-1.5-0.1c-12.5,0-22.7,11.3-22.7,25.2
		c0,1.2,0.1,2.3,0.2,3.4H1198.6z"/>
	<path fill="#C9EAF5" d="M1718.8,509.2c2-8.9,9.3-15.5,17.9-15.5c0.4,0,0.8,0,1.2,0c-0.8-3.4-1.2-7-1.2-10.6
		c0-23.6,17.2-42.6,38.5-42.6c9.6,0,18.4,3.9,25.1,10.4c9.9-22.3,30.6-37.6,54.5-37.6c31,0,56.6,25.8,60.2,59.1c0.7,0,1.3-0.1,2-0.1
		c16.2,0,29.3,14.6,29.3,32.5c0,1.5-0.1,3-0.3,4.4H1718.8z"/>
	<path fill="#D1D3D3" d="M2072.3,1651H201.7c-24.7,0-44.7-20-44.7-44.7v0c0-24.7,20-44.7,44.7-44.7h1870.6c24.7,0,44.7,20,44.7,44.7
		v0C2117,1631,2097,1651,2072.3,1651z"/>
	<g>
		<circle fill="#505050" cx="1823.1" cy="1148.8" r="10.9"/>
		<path fill="#747474" d="M1823.1,1148.8c16.2,0,29.3,13.1,29.3,29.3h-58.5C1793.8,1161.9,1806.9,1148.8,1823.1,1148.8z"/>
		<polygon fill="#F5D95A" points="1823.1,1182.1 1850.6,1182.1 1837.2,1238.3 1823.1,1238.3 1809,1238.3 1795.5,1182.1 		"/>
		<rect x="1801.8" y="1521.6" fill="#747474" width="42.6" height="53.6"/>
		<rect x="1812.1" y="1300.1" fill="#747474" width="21.9" height="222"/>
		<rect x="1817.6" y="1245.7" fill="#747474" width="10.9" height="51.9"/>
		<rect x="1801.8" y="1499" fill="#505050" width="42.6" height="25.6"/>
		<rect x="1805" y="1294" fill="#505050" width="36.1" height="16.6"/>
		<path fill="#505050" d="M1799.6,1573.4h46.9c6.8,0,12.4,5.5,12.4,12.4h-71.7C1787.2,1578.9,1792.8,1573.4,1799.6,1573.4z"/>
		<polygon fill="#F5D95A" points="1823.1,1182.1 1853.6,1182.1 1838.7,1238.3 1823.1,1238.3 1807.5,1238.3 1792.6,1182.1 		"/>
		<g>
			<polygon fill="#747474" points="1842.7,1182.1 1832.4,1238.3 1830,1238.3 1827.4,1238.3 1837.7,1182.1 			"/>
			<polygon fill="#747474" points="1803.5,1182.1 1813.7,1238.3 1816.1,1238.3 1818.7,1238.3 1808.4,1182.1 			"/>
		</g>
		<rect x="1805" y="1236.5" fill="#505050" width="36.1" height="10.3"/>
		<path fill="#505050" d="M1786,1179.6c0,2.5,2.1,4.6,4.6,4.6h65c2.5,0,4.6-2.1,4.6-4.6l0,0c0-2.5-2.1-4.6-4.6-4.6h-65
			C1788,1175,1786,1177,1786,1179.6L1786,1179.6z"/>
	</g>
	<g>
		<circle fill="#505050" cx="1415.1" cy="1148.8" r="10.9"/>
		<path fill="#747474" d="M1415.1,1148.8c16.2,0,29.3,13.1,29.3,29.3h-58.5C1385.9,1161.9,1399,1148.8,1415.1,1148.8z"/>
		<polygon fill="#F5D95A" points="1415.1,1182.1 1442.7,1182.1 1429.2,1238.3 1415.1,1238.3 1401.1,1238.3 1387.6,1182.1 		"/>
		<rect x="1393.9" y="1521.6" fill="#747474" width="42.6" height="53.6"/>
		<rect x="1404.2" y="1300.1" fill="#747474" width="21.9" height="222"/>
		<rect x="1409.7" y="1245.7" fill="#747474" width="10.9" height="51.9"/>
		<rect x="1393.9" y="1499" fill="#505050" width="42.6" height="25.6"/>
		<rect x="1397.1" y="1294" fill="#505050" width="36.1" height="16.6"/>
		<path fill="#505050" d="M1391.7,1573.4h46.9c6.8,0,12.4,5.5,12.4,12.4h-71.7C1379.3,1578.9,1384.9,1573.4,1391.7,1573.4z"/>
		<polygon fill="#F5D95A" points="1415.1,1182.1 1445.6,1182.1 1430.7,1238.3 1415.1,1238.3 1399.6,1238.3 1384.6,1182.1 		"/>
		<g>
			<polygon fill="#747474" points="1434.7,1182.1 1424.5,1238.3 1422.1,1238.3 1419.5,1238.3 1429.8,1182.1 			"/>
			<polygon fill="#747474" points="1395.6,1182.1 1405.8,1238.3 1408.2,1238.3 1410.8,1238.3 1400.5,1182.1 			"/>
		</g>
		<rect x="1397.1" y="1236.5" fill="#505050" width="36.1" height="10.3"/>
		<path fill="#505050" d="M1378,1179.6c0,2.5,2.1,4.6,4.6,4.6h65c2.5,0,4.6-2.1,4.6-4.6l0,0c0-2.5-2.1-4.6-4.6-4.6h-65
			C1380.1,1175,1378,1177,1378,1179.6L1378,1179.6z"/>
	</g>
	<g>
		<circle fill="#505050" cx="766.4" cy="1148.8" r="10.9"/>
		<path fill="#747474" d="M766.4,1148.8c16.2,0,29.3,13.1,29.3,29.3h-58.5C737.1,1161.9,750.2,1148.8,766.4,1148.8z"/>
		<polygon fill="#F5D95A" points="766.4,1182.1 793.9,1182.1 780.4,1238.3 766.4,1238.3 752.3,1238.3 738.8,1182.1 		"/>
		<rect x="745.1" y="1521.6" fill="#747474" width="42.6" height="53.6"/>
		<rect x="755.4" y="1300.1" fill="#747474" width="21.9" height="222"/>
		<rect x="760.9" y="1245.7" fill="#747474" width="10.9" height="51.9"/>
		<rect x="745.1" y="1499" fill="#505050" width="42.6" height="25.6"/>
		<rect x="748.3" y="1294" fill="#505050" width="36.1" height="16.6"/>
		<path fill="#505050" d="M742.9,1573.4h46.9c6.8,0,12.4,5.5,12.4,12.4h-71.7C730.5,1578.9,736.1,1573.4,742.9,1573.4z"/>
		<polygon fill="#F5D95A" points="766.4,1182.1 796.9,1182.1 781.9,1238.3 766.4,1238.3 750.8,1238.3 735.9,1182.1 		"/>
		<g>
			<polygon fill="#747474" points="785.9,1182.1 775.7,1238.3 773.3,1238.3 770.7,1238.3 781,1182.1 			"/>
			<polygon fill="#747474" points="746.8,1182.1 757,1238.3 759.4,1238.3 762,1238.3 751.7,1182.1 			"/>
		</g>
		<rect x="748.3" y="1236.5" fill="#505050" width="36.1" height="10.3"/>
		<path fill="#505050" d="M729.2,1179.6c0,2.5,2.1,4.6,4.6,4.6h65c2.5,0,4.6-2.1,4.6-4.6l0,0c0-2.5-2.1-4.6-4.6-4.6h-65
			C731.3,1175,729.2,1177,729.2,1179.6L729.2,1179.6z"/>
	</g>
	<g>
		<circle fill="#505050" cx="358.4" cy="1148.8" r="10.9"/>
		<path fill="#747474" d="M358.4,1148.8c16.2,0,29.3,13.1,29.3,29.3h-58.5C329.2,1161.9,342.3,1148.8,358.4,1148.8z"/>
		<polygon fill="#F5D95A" points="358.4,1182.1 386,1182.1 372.5,1238.3 358.4,1238.3 344.3,1238.3 330.9,1182.1 		"/>
		<rect x="337.1" y="1521.6" fill="#747474" width="42.6" height="53.6"/>
		<rect x="347.5" y="1300.1" fill="#747474" width="21.9" height="222"/>
		<rect x="353" y="1245.7" fill="#747474" width="10.9" height="51.9"/>
		<rect x="337.1" y="1499" fill="#505050" width="42.6" height="25.6"/>
		<rect x="340.4" y="1294" fill="#505050" width="36.1" height="16.6"/>
		<path fill="#505050" d="M335,1573.4h46.9c6.8,0,12.4,5.5,12.4,12.4h-71.7C322.6,1578.9,328.1,1573.4,335,1573.4z"/>
		<polygon fill="#F5D95A" points="358.4,1182.1 388.9,1182.1 374,1238.3 358.4,1238.3 342.8,1238.3 327.9,1182.1 		"/>
		<g>
			<polygon fill="#747474" points="378,1182.1 367.8,1238.3 365.4,1238.3 362.8,1238.3 373.1,1182.1 			"/>
			<polygon fill="#747474" points="338.8,1182.1 349.1,1238.3 351.5,1238.3 354.1,1238.3 343.8,1182.1 			"/>
		</g>
		<rect x="340.4" y="1236.5" fill="#505050" width="36.1" height="10.3"/>
		<path fill="#505050" d="M321.3,1179.6c0,2.5,2.1,4.6,4.6,4.6h65c2.5,0,4.6-2.1,4.6-4.6l0,0c0-2.5-2.1-4.6-4.6-4.6h-65
			C323.4,1175,321.3,1177,321.3,1179.6L321.3,1179.6z"/>
	</g>
</g>
</svg>
